<svg id="Capa_1" data-name="Capa 1" xmlns="http://www.w3.org/2000/svg" viewBox="0 0 853 780"><path d="M766.25,388.66c.3,179.9-146.1,328.63-329.61,327.58-180.3-1-326.73-147.87-325.57-329.8C112.22,204.9,260.64,59.64,441.22,61,620.8,62.38,766.49,208.67,766.25,388.66Z" style="fill:#e44d26"/><path d="M438.78,268.06H576.69c.68,0,1.36,0,2,0,.51,0,.71.29.67.82-.28,3.19-.56,6.38-.86,9.57-.18,2-.41,4.07-.59,6.1-.61,7-1.2,14-1.81,21q-.79,9.06-1.62,18.13c-.62,6.78-1.27,13.57-1.88,20.36-.48,5.36-.91,10.73-1.39,16.09s-1,10.45-1.45,15.68c-.35,3.87-.63,7.75-1,11.62-.48,5.29-1,10.58-1.47,15.88-.34,3.66-.63,7.33-1,11-.35,3.94-.73,7.87-1.08,11.81-.32,3.53-.62,7.06-.94,10.59-.36,4.08-.74,8.15-1.1,12.22l-.93,10.59q-.57,6.23-1.13,12.43c-.31,3.53-.61,7.06-.92,10.59-.37,4.14-.76,8.28-1.13,12.42-.31,3.47-.61,6.93-.92,10.39q-.56,6.21-1.12,12.42c-.16,1.77-.31,3.54-.47,5.3q-.81,9.06-1.62,18.13c-.34,3.87-.64,7.74-1,11.61a5.51,5.51,0,0,1-.45,2.37c-.43.67-1.45.62-2.23.84l-74.61,20.71q-18.22,5-36.43,10.11a6.37,6.37,0,0,1-3.57,0q-31.69-8.83-63.39-17.62l-48-13.34c-2.07-.58-1.83-.45-2-2.44-.36-4.14-.75-8.28-1.12-12.43-.33-3.73-.63-7.47-1-11.2s-.72-7.74-1.07-11.61c-.32-3.53-.62-7.06-.93-10.59q-.56-6.21-1.12-12.42c-.32-3.54-.62-7.07-.93-10.6-.37-4.07-.75-8.14-1.11-12.22-.32-3.53-.62-7.06-.93-10.59q-.56-6.21-1.12-12.42c-.32-3.67-.63-7.34-1-11q-.52-5.91-1.07-11.82l-1-11q-.54-6-1.09-12c-.33-3.67-.63-7.34-1-11-.36-4-.74-8-1.1-12-.31-3.53-.61-7.06-.93-10.59-.37-4.14-.76-8.28-1.12-12.42-.33-3.67-.63-7.34-1-11q-.52-5.81-1.06-11.61c-.17-1.9-.35-3.8-.51-5.71-.6-6.86-1.18-13.71-1.78-20.57q-.81-9.27-1.65-18.54L298.28,272c-.09-1-.22-2-.29-3.06,0-.65.15-.83.83-.86s1.36,0,2,0Z" style="fill:#fff"/><path d="M483.4,217.76l-7.34,11.32c-1.37,2.12-2.74,4.24-4.12,6.34-.38.58-.7.58-1.08,0L464,224.78l-3.89-6a2.9,2.9,0,0,0-.86-1.06c-.55.29-.32.75-.32,1.11,0,7.43,0,14.87,0,22.3,0,2.7.21,2.43-2.4,2.43H443.4c-.41,0-.82,0-1.22,0a.74.74,0,0,1-.74-.8c0-.34,0-.68,0-1V191.38c0-.27,0-.54,0-.81a.5.5,0,0,1,.47-.55,8.6,8.6,0,0,1,1-.05h15.75c.2,0,.41,0,.61,0a1.32,1.32,0,0,1,1.31.77c1.43,2.4,2.9,4.78,4.36,7.16,1.88,3.08,3.76,6.17,5.65,9.24.28.45.45,1,1,1.24a4.26,4.26,0,0,0,1.05-1.47l9.26-15.18.75-1.22a1.08,1.08,0,0,1,1-.53c.27,0,.55,0,.82,0h15.55c.34,0,.68,0,1,0a.61.61,0,0,1,.61.66c0,.54,0,1.09,0,1.63V241c0,.54,0,1.09,0,1.64s-.2.86-.82.91a2.77,2.77,0,0,1-.41,0H485.16a4.16,4.16,0,0,1-.61,0,.69.69,0,0,1-.66-.65c0-.61,0-1.22,0-1.83q0-10.65,0-21.28c0-.65,0-1.3-.07-2Z" style="fill:#fff"/><path d="M324.11,216.58V192c0-2.24-.18-2.05,2.13-2.06H340c.47,0,.95,0,1.43,0a.62.62,0,0,1,.65.64c0,.54,0,1.09,0,1.63v12.89c0,.55,0,1.09,0,1.64s.21.78.9.83h14.11c1.26,0,1.31-.08,1.34-1.24,0-.48,0-1,0-1.44V192.28c0-.55,0-1.09,0-1.64a.6.6,0,0,1,.63-.64c.41,0,.81,0,1.22,0h14.12c.34,0,.68,0,1,0,.63,0,.78.2.82.9,0,.34,0,.68,0,1v49.72c0,.4,0,.82,0,1.22a.66.66,0,0,1-.63.67c-.34,0-.68,0-1,0H360.06c-.34,0-.68,0-1,0a.55.55,0,0,1-.54-.51c-.05-.54-.06-1.09-.06-1.63q0-6.85,0-13.71c0-2.13.13-2.06-1.95-2.06H344c-.34,0-.68,0-1,0-.77,0-.88.16-.91,1,0,.48,0,1,0,1.44V241c0,.47,0,.95,0,1.43,0,1-.13,1.16-1.22,1.16H325.28a4.17,4.17,0,0,1-.61,0,.57.57,0,0,1-.51-.54c0-.61-.05-1.22-.05-1.84Z" style="fill:#fff"/><path d="M408.89,190h22.3c.55,0,1.09,0,1.64,0a.59.59,0,0,1,.65.61q0,.51,0,1V206c0,.34,0,.68,0,1a.61.61,0,0,1-.61.66c-.55,0-1.09,0-1.64,0H420c-.55,0-1.09,0-1.63,0a.53.53,0,0,0-.51.54c0,.61-.05,1.22-.05,1.84v30.68c0,.48,0,1,0,1.44,0,1.27-.06,1.33-1.23,1.33H401a3.14,3.14,0,0,1-.61-.05.57.57,0,0,1-.51-.54c0-.61,0-1.22,0-1.84q0-15.54,0-31.09c0-2.57.26-2.35-2.25-2.35H386.14c-.48,0-1,0-1.43,0a.64.64,0,0,1-.63-.67q0-.4,0-.81V191.44c0-.28,0-.55,0-.82a.62.62,0,0,1,.66-.62c.54,0,1.09,0,1.64,0Z" style="fill:#fff"/><path d="M510.67,216.75V191.81c0-1.88-.07-1.84,1.74-1.84h14.52c.34,0,.68,0,1,0a.62.62,0,0,1,.62.67q0,.92,0,1.83V223c0,.55,0,1.09,0,1.64,0,1,.09,1.1,1.22,1.13h21.68c.54,0,1.09,0,1.63,0a.54.54,0,0,1,.54.5,7,7,0,0,1,.06,1V242a7.42,7.42,0,0,1,0,.82c0,.38-.2.65-.61.67l-1.23,0H511.6c-.68,0-.88-.21-.91-.83s0-1.09,0-1.63Z" style="fill:#fff"/><path d="M388.42,362.56c.19,1.86.37,3.61.56,5.37.35,3.25.71,6.5,1.06,9.75.32,2.91.62,5.83.94,8.74q.52,4.79,1.07,9.55c0,.34.07.68.12,1a.57.57,0,0,0,.53.52,3.08,3.08,0,0,0,.61.05H516.68c.68,0,1.37,0,2.05,0,.51,0,.71.24.7.78,0,.89-.06,1.78-.13,2.66-.49,5.77-1,11.54-1.48,17.32-.33,4-.62,8-1,12-.34,4.22-.71,8.43-1.07,12.64q-.24,2.85-.47,5.7c-.46,5.78-.9,11.56-1.37,17.33q-.81,10.09-1.65,20.18-.78,9.57-1.59,19.15c-.11,1.34-.09,1.36-1.51,1.75L498.77,510q-29.08,7.9-58.16,15.82a6.2,6.2,0,0,1-3.39,0q-30.48-8.24-61-16.4c-3-.79-5.92-1.58-8.89-2.35a1.38,1.38,0,0,1-1.18-1.38c-.17-2.11-.45-4.21-.66-6.31-.46-4.81-.89-9.63-1.36-14.45s-1-9.63-1.46-14.44c-.35-3.53-.64-7.06-1-10.59-.22-2.24-.48-4.47-.7-6.71a9.87,9.87,0,0,1,0-1.63.57.57,0,0,1,.37-.4,4.22,4.22,0,0,1,1-.07h32.94c1,0,1.11.12,1.22,1.2l1.74,17.09c.27,2.58.55,5.15.81,7.73.15,1.45.15,1.45,1.66,1.88l30.07,8.56c2.09.6,4.21,1.14,6.28,1.79a4.92,4.92,0,0,0,3,0c10.87-3.12,21.75-6.19,32.62-9.28,1.44-.41,2.88-.83,4.33-1.23a1.28,1.28,0,0,0,1-1.32q.58-7.54,1.25-15.08c.47-5.5,1-11,1.45-16.5.31-3.53.6-7.06.9-10.59q0-.61,0-1.23a.51.51,0,0,0-.47-.55,3.08,3.08,0,0,0-.61-.05H362.33c-.61,0-1.22,0-1.84,0s-1-.21-1-1c-.19-1.9-.34-3.8-.51-5.7L357.83,415c-.31-3.39-.61-6.79-.93-10.18-.37-4.07-.77-8.14-1.14-12.21-.32-3.53-.62-7.07-.94-10.6q-.52-5.59-1.06-11.19c-.33-3.53-.64-7.06-1-10.59-.36-3.94-.74-7.87-1.1-11.81-.33-3.6-.64-7.2-1-10.79s-.67-7.2-1-10.79c-.07-.72.07-.89.72-.92s1.09,0,1.64,0H524.78c1.93,0,1.8,0,1.66,1.75-.38,4.55-.67,9.11-1,13.67-.47,5.84-1,11.68-1.45,17.52-.08.95-.12,1.91-.19,2.86a.65.65,0,0,1-.66.64c-.68,0-1.36,0-2.05,0H390.94A8.76,8.76,0,0,0,388.42,362.56Z" style="fill:#e44d26"/></svg>