<svg id="Capa_1" data-name="Capa 1" xmlns="http://www.w3.org/2000/svg" viewBox="0 0 853 780"><path d="M190.17,116a1.31,1.31,0,0,1-.06-1.3c2.11-1.24,4.42-.65,6.63-.65q232.68-.06,465.34,0c7.17,0,7.17,0,7.27,7.38-1.46,12.15-1.92,24.39-3.36,36.54.29,3.67-.74,7.23-.86,10.87-2,21.78-3.51,43.59-5.83,65.33a107.73,107.73,0,0,1-.95,13.31c-1.66,21.08-3.86,42.13-5.31,63.23-1.5,11.13-1.6,22.39-3.25,33.51-.39,10.5-1.45,20.94-2.72,31.36-1.58,19.93-3.41,39.84-5.1,59.75-1.49,17.69-3.15,35.37-4.39,53.07-.3,4.28-1.07,8.48-1.39,12.74-1.35,20.29-3.28,40.53-5,60.79-.82,9.35-1.47,18.72-2.42,28-.22,2.09-.89,4.13-.7,6.26.67,2.35-1.29,4.24-1.16,6.5-27.64,7.88-55.26,15.82-82.92,23.61q-53.24,15-106.51,29.77c-1.06.29-2.19.4-3.28.59-2.66.35-5.31-.88-8-.08q-22-5.25-43.47-12.17c-1.91-1.94-4.45-2.08-6.92-2.45-11.06-1.21-21.41-5.25-32-8.17-34.35-9.44-68.64-19.1-102.95-28.69a28.16,28.16,0,0,1-3.13-1.28c-4-1.7-5.46-4.77-5.42-9,.06-7-1.9-13.8-1.37-20.8-2.54-22.3-4-44.69-6-67-1.77-19.66-3.38-39.33-5.26-59-.64-10.51-1.74-21-2.69-31.46-.65-10.15-2-20.26-2.32-30.44-2.19-20.32-3.66-40.71-5.41-61.08q-1.54-17.78-3.13-35.57c-1.2-10-1.54-20.09-2.79-30.1-.44-9.72-1.75-19.38-2.22-29.1-2.59-25.2-4.44-50.47-6.69-75.69-1-11.61-2.36-23.21-2.8-34.87A6.17,6.17,0,0,0,190.17,116Z" style="fill:#e8c932"/><path d="M668.69,122.85c1.11-6.47-1.5-8.28-8.05-8.27q-235.26.28-470.52.16c1.47-2.7,4-1.45,6-1.45q233.94-.11,467.88-.06c7.19,0,7.19.06,5.86,10.94C668.78,124.39,668.05,124.25,668.69,122.85Z" style="fill:#e6c524"/><path d="M634.82,501c2.56-6.86,1.68-14.19,2.42-21.24,2.51-24.2,3.71-48.53,5.81-72.77.93-10.68,2.67-21.28,2.61-32,1.67-.31,1.92.78,2,2-.12,2.7.39,5.43-.48,8.07l-.32,6.21c-1.36,3.23.21,6.77-1,10l-.35,6.27c-1.21,2.8.13,5.89-1,8.7l-.33,6.2c-1.4,3.66.3,7.6-1,11.27-.12,1.67-.23,3.34-.35,5-1.29,3.18.28,6.66-1,9.84l-.27,5.05c-1.45,3.66.27,7.63-1.07,11.3l-.33,5c-1.31,3.22.23,6.73-1,10l-.37,6.32c-1.17,2.78.16,5.84-1,8.63-.11,2.07-.23,4.14-.34,6.21a1.76,1.76,0,0,1-1.26.76A2,2,0,0,1,634.82,501Z" style="fill:#e8c72b"/><path d="M220.08,448.13c2.78,5.37,2.11,11.48,2.36,17,.84,18.84,3.58,37.48,4.61,56.29,1,17.63,3.42,35.17,5.22,52.76-.53.51-.72,1.27-1.28,1.78a1,1,0,0,1-1.22-.44c-.12-2.08-.24-4.15-.37-6.23-1.23-3.23.25-6.74-1-10q-.19-3.17-.37-6.31c-1.16-2.77.18-5.83-1-8.6q-.18-3.15-.38-6.3c-1.33-3.69.41-7.67-1.07-11.34l-.27-5c-1.32-3.19.33-6.7-1.06-9.89l-.3-6.17c-1.25-3.27.31-6.83-1.06-10.09-.11-2.06-.21-4.11-.31-6.17-1.14-2.82.22-5.93-1-8.73l-.33-6.24c-1.25-3.25.31-6.79-1-10l-.3-3.75c-1.35-3.63.32-7.53-1-11.16l-.1-1.4Q219.45,447.16,220.08,448.13Z" style="fill:#e8c82b"/><path d="M190.17,116a4.56,4.56,0,0,1,2.79,4.24c.88,12.74,1.66,25.49,2.76,38.21q2.4,27.75,5.25,55.45c.54,5.33-1.18,10.87,1.48,16a2,2,0,0,1-1.27.76,1.73,1.73,0,0,1-1.25-.77q-.18-3.09-.35-6.2c-1.14-2.79.18-5.86-1-8.64-.13-2.12-.25-4.23-.38-6.34-1.25-3.22.27-6.72-1-9.93l-.36-6.29c-1.28-3.23.36-6.78-1.07-10l-.27-5c-1.29-3.19.28-6.68-1-9.87l-.36-7.54c-1.16-2.81.25-5.94-1-8.73l-.28-5.08c-1.33-3.17.29-6.65-1-9.82-.12-2.11-.23-4.21-.34-6.32-1.27-3.22.29-6.73-1-9.95Z" style="fill:#e7c82b"/><path d="M634.82,501h1.35a19.28,19.28,0,0,1,.18,10l-.34,4.92c-1.33,3.23.2,6.74-1,10-.12,2.09-.23,4.18-.35,6.27-1.38,3.64.26,7.55-1,11.21l-.36,5.07c-1.26,2.78.12,5.87-1,8.66.21,7.57-.73,15-1.71,22.52-1.33,3.21.23,6.71-1,9.93l-.3,4.89c-2.44.06-2-1.22-1.24-2.66,1-21,3-41.83,5.17-62.69C634.18,519.79,634.3,510.37,634.82,501Z" style="fill:#e7c625"/><path d="M206.53,289.54c3.21,5.77,1.25,12.23,2.25,18.35,2,12.3,1.89,24.93,3.26,37.35,1.49,13.5,1.13,27.18,4,40.55a2.06,2.06,0,0,1-1.29.76,1.82,1.82,0,0,1-1.27-.77c-.1-1.63-.21-3.26-.31-4.89-1.25-3.23.28-6.74-1-10l-.36-6.26c-1.14-2.79.22-5.87-1-8.65l-.35-6.23c-1.2-3.26.24-6.77-1-10l-.38-6.31c-1.15-2.78.22-5.84-1-8.61-.12-2.1-.23-4.2-.35-6.3-1.23-3.23.24-6.72-1-10q-.19-3.15-.38-6.28c-1-3.09-.3-6.26-.5-9.38C205.92,291.77,205.66,290.54,206.53,289.54Z" style="fill:#e9c72a"/><path d="M657.86,234c2.62-7.55,1.82-15.54,2.41-23.26,1-13.17,3.64-26.23,3.14-39.52,0-.74.79-1.52,1.21-2.28a2.82,2.82,0,0,1,1.22,1.31l0,2.81c-1.21,2.79.14,5.88-1,8.68l-.34,6.23c-1.24,2.8.13,5.91-1,8.72q-.16,3.09-.31,6.18c-1.36,3.25.19,6.81-1,10.07a114.13,114.13,0,0,1-1.62,21,1.94,1.94,0,0,1-1.29.77A2,2,0,0,1,657.86,234Z" style="fill:#e8c82c"/><path d="M652.43,311.24c-.36-20.59,4.08-40.86,4.2-61.43,0-.76.79-1.52,1.22-2.28a2.92,2.92,0,0,1,1.21,1.34l0,1.43c-1.31,3.2.24,6.7-1,9.92l-.4,6.36c-1.11,2.8.16,5.86-1,8.66-.11,2.07-.21,4.15-.32,6.22-1.36,3.23.2,6.75-1,10-.13,2.1-.25,4.19-.37,6.29-1.27,3.22.24,6.72-1,9.94-.1,1.64-.21,3.27-.31,4.91a1.09,1.09,0,0,1-1.48.16A1.18,1.18,0,0,1,652.43,311.24Z" style="fill:#e7c728"/><path d="M668.69,122.85l1.22,1.32-.06,1.45c-1.18,2.79.15,5.88-1,8.68l-.3,6.2c-1.36,3.23.15,6.75-1,10-.13,2.08-.27,4.17-.41,6.25a5.57,5.57,0,0,1-1.25,1.83,1.08,1.08,0,0,1-1.25-.49c.9-10.33,1.82-20.67,2.68-31C667.45,125.55,667.24,124,668.69,122.85Z" style="fill:#e8c72b"/><path d="M647,376.3l-1.35-1.36a167.92,167.92,0,0,0,2.71-31.17,1.18,1.18,0,0,1,1.9.6c0,3.6.58,7.22-.39,10.79-.11,1.64-.21,3.28-.32,4.92-1.35,3.21.24,6.72-1,9.93l-.36,6.28C647.78,376.92,647.4,376.9,647,376.3Z" style="fill:#e8c82d"/><path d="M649.73,343.78h-1.36c2.36-8.15,1.11-16.7,2.69-24.94.48-2.53-.95-5.39,1.37-7.59,0,.46,0,.91,0,1.36a19.27,19.27,0,0,1,.15,10.11l-.34,6.21c-1.31,3.19.27,6.68-1,9.87-.08,1.66-.17,3.32-.25,5C650.56,344.45,650.15,344.42,649.73,343.78Z" style="fill:#e8c82d"/><path d="M230.92,575.54l1.35-1.35c-.81,7.89,1.65,15.63,1.24,23.45-.19,3.64,4.26,3.24,4.17,6.24-3.11-.1-6.22-.21-5.59-4.73-1.13-2.8.24-5.88-1-8.66-.1-1.7-.2-3.4-.31-5.1C230.07,582.1,229.78,578.81,230.92,575.54Z" style="fill:#e7c727"/><path d="M220.08,448.13h-1.26c-.09-1.64-.18-3.29-.26-4.93-1.17-2.76.2-5.81-1-8.57l-.37-6.3c-.95-3.42-.36-6.91-.42-10.37l.59-1C220,427.2,220.17,437.65,220.08,448.13Z" style="fill:#e8c629"/><path d="M206.53,289.54v2.73c-.41.6-.81.62-1.2,0l-.3-5c-1.38-3.64.39-7.59-1.07-11.22l-.31-4.91c-.94-3-.3-6.15-.48-9.23a3,3,0,0,1,.66-2.16C206.13,269.54,206.55,279.52,206.53,289.54Z" style="fill:#e7c627"/><path d="M203.82,259.73v1.36c-.4.62-.79.62-1.18,0l-.36-6.2c-1.2-3.25.32-6.77-1-10l-.34-6.26c-.56-2.9-1-5.81.18-8.68h1.35C201.8,239.91,204.77,249.73,203.82,259.73Z" style="fill:#e7c626"/><path d="M214.65,385.79H216q.68,15.58,1.36,31.17h0c-.42.63-.83.6-1.24,0l-.27-4.95c-1.27-3.2.32-6.71-1-9.91l-.33-6.22C213.82,392.5,213.54,389.13,214.65,385.79Z" style="fill:#e7c728"/><path d="M659.06,248.87l-1.21-1.34q0-6.76,0-13.54h1.36a19.27,19.27,0,0,1,.17,10Z" style="fill:#e6c624"/><path d="M426.18,656.64a6.47,6.47,0,0,1,8,.08C431.48,658.55,428.83,658,426.18,656.64Z" style="fill:#e6c213"/><path d="M664.64,158.1c.43,0,.86,0,1.29.05,1.24,2.32.82,4.7.24,7.09l-.33,5-1.22-1.31Q664.64,163.51,664.64,158.1Z" style="fill:#e5c012"/><path d="M204,276c2.41,3.54.84,7.46,1.07,11.21C203.57,283.61,203.86,279.81,204,276Z" style="fill:#e8c932"/><path d="M643.1,433.7c.24-3.77-1.34-7.7,1-11.27C644.19,426.22,644.47,430,643.1,433.7Z" style="fill:#e8c932"/><path d="M375.79,642c2.94-1,5.64-1.27,6.92,2.45C380.28,644,377.66,644.06,375.79,642Z" style="fill:#e8c72e"/><path d="M633.65,543.4c.06-3.76-1.29-7.65,1-11.21C634.8,536,635.12,539.76,633.65,543.4Z" style="fill:#eace43"/><path d="M225.62,526.78c2.45,3.58.83,7.54,1.07,11.34C225.29,534.44,225.57,530.6,225.62,526.78Z" style="fill:#e8c932"/><path d="M216.12,417h1.24c-.05,3.79-.11,7.58-.16,11.37C215.79,424.64,216.12,420.78,216.12,417Z" style="fill:#e8c932"/><path d="M640.39,464.9c.24-3.78-1.36-7.73,1.07-11.3C641.48,457.4,641.8,461.23,640.39,464.9Z" style="fill:#e8c932"/><path d="M218.92,449.53c2.27,3.54.8,7.42,1,11.16C218.49,457.07,218.79,453.29,218.92,449.53Z" style="fill:#e9cc3b"/><path d="M649.73,343.78H651c0,3.83.32,7.69-1.09,11.39Z" style="fill:#e8c932"/><path d="M209.44,339.76c2.22,3.15.8,6.66,1,10C209.06,346.54,209.3,343.14,209.44,339.76Z" style="fill:#e8c932"/><path d="M191.8,136.45c2.25,3.07.81,6.53,1,9.82C191.36,143.11,191.79,139.76,191.8,136.45Z" style="fill:#e8c932"/><path d="M667.55,150.51c.1-3.36-1.29-6.87,1-10C668.63,143.88,669.07,147.29,667.55,150.51Z" style="fill:#eacd3f"/><path d="M220.23,464.44c2.33,3.13.82,6.67,1,10C219.77,471.24,220.18,467.82,220.23,464.44Z" style="fill:#e8c932"/><path d="M639,479.83c.2-3.34-1.26-6.84,1-10C640.13,473.23,640.47,476.62,639,479.83Z" style="fill:#e8c932"/><path d="M194.52,167.62c2.24,3.09.81,6.56,1,9.87C194.1,174.31,194.46,171,194.52,167.62Z" style="fill:#e8c932"/><path d="M195.8,182.51c2.38,3.12.85,6.65,1.07,10C195.38,189.3,195.81,185.88,195.8,182.51Z" style="fill:#e8c932"/><path d="M222.93,495.61c2.36,3.15.81,6.71,1,10.09C222.5,502.46,222.87,499,222.93,495.61Z" style="fill:#e8c932"/><path d="M197.23,198.8c2.24,3.12.81,6.6,1,9.93C196.82,205.53,197.13,202.15,197.23,198.8Z" style="fill:#e8c932"/><path d="M662.08,212.93c.23-3.37-1.3-6.92,1-10.07C663.14,206.25,663.52,209.69,662.08,212.93Z" style="fill:#e8c932"/><path d="M190.43,120.18c2.28,3.11.82,6.61,1,9.95C190.09,126.92,190.3,123.55,190.43,120.18Z" style="fill:#e8c932"/><path d="M652.59,322.71l-.15-10.11h1.2C653.69,316,654.06,319.45,652.59,322.71Z" style="fill:#e8c932"/><path d="M206.74,308.59c2.2,3.13.8,6.61,1,9.94C206.38,315.32,206.6,312,206.74,308.59Z" style="fill:#e8c932"/><path d="M654,307.68c.17-3.33-1.24-6.82,1-9.94C655.06,301.1,655.33,304.47,654,307.68Z" style="fill:#e8c932"/><path d="M659.39,244c-.06-3.33-.12-6.67-.17-10h1.24C660.48,237.36,660.85,240.78,659.39,244Z" style="fill:#e8c932"/><path d="M636.35,511l-.18-10h1.18C637.44,504.37,637.75,507.78,636.35,511Z" style="fill:#e8c932"/><path d="M201.26,244.86c2.3,3.15.86,6.66,1,10C200.79,251.66,201.17,248.25,201.26,244.86Z" style="fill:#e8c932"/><path d="M658,260.22c.18-3.33-1.26-6.81,1-9.92C659.1,253.65,659.49,257,658,260.22Z" style="fill:#e8c932"/><path d="M202.63,261.08h1.18c-.06,3.34-.11,6.68-.17,10C202.25,267.88,202.55,264.47,202.63,261.08Z" style="fill:#e8c932"/><path d="M224.29,511.87c2.33,3.08.83,6.58,1.06,9.89C223.84,518.59,224.32,515.2,224.29,511.87Z" style="fill:#e8c932"/><path d="M635,525.92c.15-3.34-1.29-6.85,1-10C636.07,519.31,636.52,522.71,635,525.92Z" style="fill:#e8c932"/><path d="M648.52,370c.23-3.32-1.27-6.82,1-9.93C649.58,363.43,650,366.82,648.52,370Z" style="fill:#e8c932"/><path d="M214.65,385.79q-.09,5-.17,10.08c-1.52-3.24-1.11-6.68-1-10.09Z" style="fill:#e8c932"/><path d="M205.32,292.26h1.2c-.05,3.35-.11,6.69-.16,10C204.88,299.08,205.28,295.65,205.32,292.26Z" style="fill:#e8c932"/><path d="M645.82,401.26c.21-3.35-1.29-6.88,1-10C646.91,394.63,647.29,398,645.82,401.26Z" style="fill:#e8c932"/><path d="M214.81,402.09c2.3,3.1.85,6.59,1,9.91C214.38,408.82,214.78,405.43,214.81,402.09Z" style="fill:#e8c932"/><path d="M228.42,559.33c2.22,3.13.79,6.63,1,10C228.05,566.08,228.29,562.7,228.42,559.33Z" style="fill:#e8c932"/><path d="M655.32,291.45c.18-3.35-1.29-6.86,1-10C656.43,284.84,656.72,288.23,655.32,291.45Z" style="fill:#e8c932"/><path d="M230.92,575.54c0,3.28-.09,6.57-.14,9.85-1.38-3.18-1.05-6.53-1-9.86Z" style="fill:#e8c932"/><path d="M629.56,589.58c.16-3.33-1.27-6.82,1-9.93C630.57,583,631,586.38,629.56,589.58Z" style="fill:#e8c932"/><path d="M212.13,370.92c2.26,3.13.82,6.63,1,10C211.72,377.67,212.05,374.29,212.13,370.92Z" style="fill:#e8c932"/><path d="M651.22,338.79c.23-3.3-1.23-6.78,1-9.87C652.27,332.25,652.71,335.62,651.22,338.79Z" style="fill:#e8c932"/><path d="M641.73,448.55c.22-3.29-1.22-6.76,1-9.84C642.79,442,643.23,445.39,641.73,448.55Z" style="fill:#e8c932"/><path d="M668.86,134.3c.16-2.91-1.16-6,1-8.68C670,128.57,670.22,131.52,668.86,134.3Z" style="fill:#e8c932"/><path d="M193.11,151.35c2.25,2.68.87,5.79,1,8.73C192.6,157.31,193.14,154.3,193.11,151.35Z" style="fill:#e8c932"/><path d="M666.17,165.24l-.24-7.09,1.21-1.39C667.2,159.63,667.65,162.54,666.17,165.24Z" style="fill:#e8c932"/><path d="M663.44,196.68c.18-2.93-1.19-6,1-8.72C664.52,190.91,664.93,193.91,663.44,196.68Z" style="fill:#e8c932"/><path d="M201.1,229.92l-.18,8.68c-1.44-2.77-1.09-5.74-1-8.69Z" style="fill:#e8c932"/><path d="M664.8,181.73c.15-2.91-1.17-6,1-8.68C665.82,176,666.2,179,664.8,181.73Z" style="fill:#e8c932"/><path d="M217.57,434.63c2.12,2.65.86,5.68,1,8.56C217.09,440.47,217.57,437.52,217.57,434.63Z" style="fill:#e8c932"/><path d="M656.67,275.24c.12-2.91-1.14-6,1-8.66C657.8,269.52,658.06,272.47,656.67,275.24Z" style="fill:#e8c932"/><path d="M198.61,215.07c2.11,2.67.83,5.73,1,8.64C198.19,221,198.53,218,198.61,215.07Z" style="fill:#e8c932"/><path d="M231.09,590.49c2.18,2.67.89,5.74,1,8.65C230.59,596.39,231.07,593.42,231.09,590.49Z" style="fill:#e8c932"/><path d="M210.77,356c2.17,2.67.87,5.74,1,8.65C210.31,361.91,210.78,358.93,210.77,356Z" style="fill:#e8c932"/><path d="M644.47,416.23c.16-2.92-1.18-6,1-8.7C645.51,410.47,645.94,413.46,644.47,416.23Z" style="fill:#e8c932"/><path d="M626.87,602.75c-4-1.7,1.81-3.72-.17-5.49a1.13,1.13,0,0,1,1.77.14c.16,1.69.75,3.41-.5,5A1.1,1.1,0,0,1,626.87,602.75Z" style="fill:#e4bd0a"/><path d="M221.6,480.71c2.2,2.69.85,5.79,1,8.73C221.12,486.66,221.53,483.67,221.6,480.71Z" style="fill:#e8c932"/><path d="M637.69,494.78c.14-2.9-1.14-6,1-8.63C638.8,489.07,639.11,492,637.69,494.78Z" style="fill:#e8c932"/><path d="M632.29,557.13c.11-2.91-1.2-6,1-8.66C633.28,551.4,633.8,554.38,632.29,557.13Z" style="fill:#e8c932"/><path d="M208.07,324.84c2.15,2.66.87,5.71,1,8.6C207.63,330.71,208.08,327.75,208.07,324.84Z" style="fill:#e8c932"/><path d="M647,376.3h1.15c.11,3,.44,5.95-1,8.75C647.12,382.13,647.07,379.22,647,376.3Z" style="fill:#e8c932"/><path d="M227.07,544.42c2.11,2.66.83,5.71,1,8.6C226.62,550.28,227,547.33,227.07,544.42Z" style="fill:#e8c932"/><path d="M628,597.33a10.64,10.64,0,0,0-1.26-.07c.17-1.88-.65-4,1.32-5.45a2.86,2.86,0,0,0,1.24,2.66l-.06,1.43A2.64,2.64,0,0,1,628,597.33Z" style="fill:#e8c830"/><path d="M628,597.33l1.24-1.43c-.2,2.19,1,4.65-1.23,6.46C628,600.68,628,599,628,597.33Z" style="fill:#e8c932"/><path d="M430.17,385.18V164.33c0-8.94,0-9,8.61-9q88.74,0,177.48-.09c5,0,7.26,0,6.62,6.63-2.41,25-4.2,50-6.87,75-2,18.28-2.67,36.7-4.31,55-2,22.1-4.5,44.15-6.54,66.24-1.2,13-1.77,26-2.92,38.95-1.55,17.41-3.46,34.79-5.09,52.19-1.1,11.84-1.93,23.71-3,35.55-1.67,18.53-3.53,37-5.15,55.58-.73,8.28-1.15,16.58-1.6,24.88-.24,4.46-.8,8.37-6.14,9.79-48,12.77-96,25.53-143.88,38.61-6.2,1.7-7.3.11-7.29-5.72Q430.28,496.62,430.17,385.18Z" style="fill:#fedd25"/><path d="M266.26,457.64c21.56,4.66,42.56,11.42,63.91,16.88L353,480.41c3.05-.16,5.27-1,4.69-4.83a32.42,32.42,0,0,1,0-4.73q0-124.2,0-248.39c0-2.39-.86-5,.82-7.2,1.23-1.77,3.09-1.55,4.89-1.55h44c1.8,0,3.65-.2,4.88,1.57,1.64,2,.84,4.35.84,6.52q.08,161.28,0,322.55c0,2.17.82,4.53-.85,6.51-2.15,2.15-4.26.28-6.23-.25C377.69,543,349.34,535.17,321,527.5a51.7,51.7,0,0,0-7.29-.93c-2.29-.83-4.9-.79-6.85-2.53-11-3.16-22.07-6.28-33.08-9.5-2.57-.75-5.05-1.81-7.57-2.73-1.52-15-.33-30-.61-44.94C265.5,463.81,264.73,460.61,266.26,457.64Z" style="fill:#fefefe"/><path d="M412.3,550.86c-.06-2.7-.18-5.4-.18-8.11q0-159.67,0-319.37c0-2.7.13-5.4.19-8.1,3.63,1,1.47,3.9,1.47,5.7q.2,112.35.11,224.7,0,49.74,0,99.49c0,2-.25,3.93-.42,5.89,0,.06-.38.16-.56.13A1.93,1.93,0,0,1,412.3,550.86Z" style="fill:#e3c00c"/><path d="M358.53,215.26c.06,25,.18,50,.19,75q0,93,.1,185.91c0,4.94-1,6.81-5.81,4.21,4.81-1.33,3.95-5.25,3.95-8.74q0-125,0-250c0-2.19.24-4.39.4-6.58,0-.07.38-.18.56-.15A2,2,0,0,1,358.53,215.26Z" style="fill:#e4c00e"/><path d="M266.26,457.64l-.09,54.17c-1.44.55-1.37-.53-1.37-1.36q0-24.63,0-49.26C264.81,459.81,265,458.5,266.26,457.64Z" style="fill:#e7c523"/><path d="M409.38,212.11H360.13v-.67h49.52Z" style="fill:#e7c524"/><path d="M306.82,524c2.53.16,5.11.2,6.85,2.53C310.81,527.29,308,527.89,306.82,524Z" style="fill:#e7c831"/><path d="M521.06,409a5.25,5.25,0,0,0-4.5.9c-1.1,1.44-2.38,1-3.68.36-2-.13-4-.31-5.64,1.11a1.6,1.6,0,0,1-2.5.22c-2.43-.16-4.83-.11-7,1.15-.72.94-1.55.83-2.44.28-7.44.84-14.91,1.51-22.13,3.65-1.08,1.46-2.36,1-3.64.37a61.21,61.21,0,0,0-14.16,2.3c-1,1.5-2.23,1-3.47.44-3.57-.07-2.86-2.75-2.86-4.87q0-98.15-.09-196.29c0-3.74,1-5,4.9-5q70.74.18,141.47,0c3.13,0,4.72.76,4.47,4,1.93,2.44.06,5.08.41,7.61-1,2.82-.37,5.79-.79,8.66-.85,2.4-.38,4.91-.54,7.36-.76,2.32-.6,4.73-.71,7.11-.1,1-.46,2-.6,3s.15,2-.82,2.75c-.7,3.91-.08,9.53-2.42,11.33-3.71,2.86-9.51,1-14.41,1-23.67.11-47.35,0-71,.13-2.23,0-5-1.43-6.77,1.27,1.82,2.39,1.22,5.19,1.22,7.84q.07,36.19,0,72.38c0,9.57,0,9.61,9.3,8.33,1.55-.22,3.12-.4,4.67-.68a4.17,4.17,0,0,1,3.6.1c2.44.16,4.87.19,7.09-1.09.66-1,1.49-.85,2.37-.34,14.22-1.51,28.37-3.52,42.38-6.42.67-1,1.49-.87,2.37-.3l1.47-.17c2.13-.94,4.21-2.22,6.68-1.13,4.38-.69,6.23,1.17,5.57,5.54,1,2,.4,4.2.48,6.31-.89,2.39-.42,4.92-.75,7.37-.73,2.07-.43,4.23-.64,6.35-.92,2.82-.41,5.73-.6,8.6-.54,2.08-.11,4.4-1.49,6.29-2.08,12.68-3,25.47-3.77,38.28,1,2.07.42,4.26.45,6.4-1.13,3.1,0,6.46-1.09,9.57-.3,1.4,0,2.86-.35,4.26-1.08,3.45.11,7.11-1,10.56a37.29,37.29,0,0,0-.25,5.18c-.83,2.26-.54,4.63-.7,7a42.26,42.26,0,0,0-.94,8.76c-.6,2.29-.13,4.67-.54,7-.74,2-.34,4.13-.62,6.18-.95,2.78-.22,5.71-.78,8.53-1.08,2,.47,4.45-1.31,6.25-.2.4-.62.84-.57,1.2,1.54,11-5.36,13.34-14.19,15.67-35.07,9.3-70,19.26-104.9,29.09-4.65,1.31-6.66,1.07-6.46-4.79.47-14,.49-28,0-41.92-.21-5.93,1.9-8.16,7.36-9.59,21.54-5.62,43-11.67,64.43-17.6,1.5-.41,2.93-1.07,4.4-1.62,1.94-2.46,1.94-5.47,2.32-8.38.71-2.34.15-4.81.65-7.18.94-5.3-.19-10.84,1.8-16,.88-2.72.57-5.54.74-8.32a9.9,9.9,0,0,1,.49-2c.21-1.34,0-2.71.29-4.05.78-2.27.32-4.66.64-7a17.3,17.3,0,0,0,.61-4.85c.85-2.41.58-4.91.54-7.39-1.79-3.68-4.21-.34-6.31-.56C524.88,409.34,522.92,409.86,521.06,409Z" style="fill:#fefefe"/><path d="M518.55,356.12c-4.36.86-8.7,1.82-13.08,2.54-4.65.77-3.59-2.76-3.6-5.21q-.06-28,0-55.94c0-9.88.15-19.75.23-29.63h92l0,1.35H580.85c-23.26,0-46.52.14-69.78-.11-5.13-.05-6.52,1.57-6.47,6.57.23,24.17.09,48.33.1,72.5,0,8.66.89,9.24,9.51,6.44C515.35,356,517.47,354.57,518.55,356.12Z" style="fill:#fedb1a"/><path d="M447.55,215.45V417.87h-.65V215.19Z" style="fill:#fed807"/><path d="M450.93,211.13H597.77v.68H450.66Z" style="fill:#feda16"/><ellipse cx="447.13" cy="524.57" rx="0.35" ry="37.01" style="fill:#fed807"/><path d="M527.9,467.53c-.28,2.82,1.14,6.26-2.87,7.68q2-19.2,4.05-38.4c.14-1.36.16-2.68,1.39-3.59.4-.67.8-.64,1.21,0l-.07,1.42c-1.22,2.75.19,5.81-1,8.56-1.86,5.6-.56,11.53-1.75,17.2C527.79,462.67,529,465.26,527.9,467.53Z" style="fill:#fcda1b"/><path d="M577.73,476c-1.87-2.62.57-5.05.32-7.6.43-.61.65-1.37,1.29-1.83a1.11,1.11,0,0,1,1.26.49q-1.35,12.81-2.71,25.63c-.26,2.34.84,4.94-1.34,6.91a2.85,2.85,0,0,1-.66-2.09c.16-2.62-.44-5.29.49-7.86q.17-3.18.32-6.37C577.88,481,576.65,478.36,577.73,476Z" style="fill:#fbda22"/><path d="M587.2,371.8c.13-2.13.25-4.25.37-6.38,1.19-2.23-.15-4.82,1-7.05l.27-6.43c2.52,3.94,1.73,8.48,1,12.38-1.15,5.84-.85,11.6-1.07,17.4-1.65.34-1.91-.73-2-2C586.89,377.1,586.29,374.41,587.2,371.8Z" style="fill:#fed915"/><path d="M533.33,417.5c-.13,1.63-.25,3.27-.38,4.91a5.28,5.28,0,0,1-1.23,1.82,1.08,1.08,0,0,1-1.25-.47,42.53,42.53,0,0,0,1.42-11c.13-3.84-2.07-2.89-4.17-2.63-.46-.32-.62-.65-.47-1s.29-.5.45-.5c2.26-1.22,4.56-3.77,6.69.18C533,411.62,534.52,414.72,533.33,417.5Z" style="fill:#fed71a"/><path d="M599.41,225.45l.36-7.77,1.78-2.67c-.47,6.8.34,13.72-2,20.34a2.82,2.82,0,0,1-.66-2.08C599.1,230.66,598.48,228,599.41,225.45Z" style="fill:#fedb1e"/><path d="M599.58,234c0,.46,0,.92,0,1.37-.51,5.42,1.22,11-1.37,16.26-.41.6-.82.61-1.23,0l0-2.77c1.23-2.29,0-4.93,1-7.26l.39-7.6C598.79,233.39,599.18,233.36,599.58,234Z" style="fill:#fcd918"/><path d="M579.33,456.28c-.14-3.8-.25-7.58,1-11.24,1.9,1.55-.06,4.16,1.57,5.79-.18,1.88.63,4-1.34,5.44C580.18,456.92,579.76,456.92,579.33,456.28Z" style="fill:#fedc1d"/><path d="M587.37,380.37l1.36,1.35c-2.51,3.76-.47,8.27-2.3,13.56-.26-3.69-.42-6.06-.58-8.42l.36-6.49C586.6,379.74,587,379.77,587.37,380.37Z" style="fill:#fadb23"/><path d="M576.54,498.27c0,.46,0,.92,0,1.37v12.13h-1.08c-.17-2.33-.34-4.67-.5-7l.33-6.48C575.7,497.67,576.11,497.66,576.54,498.27Z" style="fill:#fed916"/><path d="M581.81,431.56q.13-3.21.26-6.42c2.54,4.3.69,9,1.24,13.5C579.58,437,581.65,434.06,581.81,431.56Z" style="fill:#fed915"/><path d="M581.81,431.56c.6,2.34-.81,5.1,1.5,7.08a2.79,2.79,0,0,1-1.36,2.72c-.38.63-.78.67-1.19,0C580.55,438.05,580.25,434.7,581.81,431.56Z" style="fill:#feda1e"/><path d="M583.27,346.4l-6.68,1.13C578.23,343.68,580.69,344.67,583.27,346.4Z" style="fill:#fed604"/><path d="M579.33,456.28c.42,0,.85,0,1.28,0q0,5.42,0,10.83c-.44,0-.88,0-1.32,0-1.14-1.86-.8-3.78-.22-5.71Z" style="fill:#fed507"/><path d="M597,251.63c.41,0,.82,0,1.23,0v8.66c-2.05-2.24-.82-4.36-1.5-6.12Z" style="fill:#fedb03"/><path d="M530.47,423.76c.42,0,.84,0,1.27,0a5.54,5.54,0,0,1,.15,5.46l-.21,3.95h-1.21Z" style="fill:#fed603"/><path d="M580.76,441.38l1.19,0v9.47c-2-1.53-.93-3.89-1.57-5.79C580.51,443.82,580.63,442.6,580.76,441.38Z" style="fill:#fed602"/><path d="M451.88,419.82l3.47-.44,3.13.54C456.22,420.84,454,421.77,451.88,419.82Z" style="fill:#f8db20"/><path d="M469.51,417.08l3.64-.37,4.5.83C473.86,418.48,471.61,419,469.51,417.08Z" style="fill:#fed811"/><path d="M527.7,408.68c0,.5,0,1,0,1.49-2.23-.28-4.71.83-6.66-1.13Z" style="fill:#fed602"/><path d="M518.55,356.12c-1.51-.33-3.29.15-4.34-1.49,2.25.3,4.78-.9,6.7,1.22Z" style="fill:#fed707"/><path d="M575.12,347.7l-2.37.3-4-.76C571.63,346.29,573.46,346,575.12,347.7Z" style="fill:#fed604"/><path d="M512.88,410.3l3.68-.36,1.67.79c-.42.27-.82.74-1.24.76C515.51,411.57,513.94,411.78,512.88,410.3Z" style="fill:#fed503"/><path d="M495.28,413.06l2.44-.28,4,.65C498.84,414.5,497,414.73,495.28,413.06Z" style="fill:#fed603"/><path d="M504.74,411.63l2.5-.22,4,.69C508.27,413.11,506.37,413.41,504.74,411.63Z" style="fill:#fed606"/><path d="M530.37,354.42l-2.37.34-3.81-.68C526.8,353,528.67,352.81,530.37,354.42Z" style="fill:#fed602"/><path d="M599.58,234l-1.18,0c0-2.89-.55-5.84,1-8.54C599.47,228.3,599.52,231.14,599.58,234Z" style="fill:#fedd25"/><path d="M533.33,417.5c.12-2.91-1.19-6,1.06-8.64A19.69,19.69,0,0,1,533.33,417.5Z" style="fill:#fedd25"/><path d="M576.54,498.27l-1.24,0c0-2.9-.45-5.88,1.08-8.6Q576.45,494,576.54,498.27Z" style="fill:#fedd25"/><path d="M530.61,443.19c.12-2.88-1.13-5.92,1-8.56C531.82,437.55,531.89,440.45,530.61,443.19Z" style="fill:#fedd25"/><path d="M587.37,380.37h-1.16c-.12-2.91-.28-5.82,1-8.56Q587.29,376.09,587.37,380.37Z" style="fill:#fedd25"/><path d="M598,241.6c0,2.47,1.06,5.08-1,7.26C596.86,246.37,596.59,243.87,598,241.6Z" style="fill:#fedd25"/><path d="M588.57,358.37c0,2.39,1,4.93-1,7.05C587.39,363,587.17,360.57,588.57,358.37Z" style="fill:#fedd25"/><path d="M531.89,429.26l-.15-5.46c.4-.47.8-.93,1.21-1.39C533,424.75,533.5,427.17,531.89,429.26Z" style="fill:#fedd25"/><path d="M577.73,476c-.12,2.46,1,5.1-1,7.28A12.59,12.59,0,0,1,577.73,476Z" style="fill:#fedd25"/><path d="M527.9,467.53c.05-2.41-1-5,1-7.14C529,462.84,529.26,465.29,527.9,467.53Z" style="fill:#fedd25"/><path d="M579.06,461.35c.07,1.9.15,3.8.22,5.71l-1.23,1.38C578.12,466,577.4,463.52,579.06,461.35Z" style="fill:#fedd25"/></svg>