<svg id="Capa_1" data-name="Capa 1" xmlns="http://www.w3.org/2000/svg" viewBox="0 0 853 780"><path d="M583.79,608.9l8.67,7.05a.89.89,0,0,1,.18,1.37,10.13,10.13,0,0,1-.69.78A39.34,39.34,0,0,1,570.09,630a55.65,55.65,0,0,1-16.14.52,40.13,40.13,0,0,1-27.77-14.87,39.26,39.26,0,0,1-7-12.41,38.36,38.36,0,0,1-2.13-9.38,58.68,58.68,0,0,1-.4-6.76c.37-8.71,2.65-16.81,7.81-24a39.35,39.35,0,0,1,24.11-15.76,54.2,54.2,0,0,1,17.4-.83,41.8,41.8,0,0,1,20.15,7.32,22.55,22.55,0,0,1,5.71,5.65c.68,1,.76,1.2-.32,2.12-.86.74-1.75,1.43-2.62,2.16-1.33,1.12-2.63,2.27-4,3.39-1.71,1.42-1.91,1.43-3.46-.08a42.76,42.76,0,0,0-3.89-3.48,25.51,25.51,0,0,0-14.2-5.29,34.8,34.8,0,0,0-11.86,1.2,27.43,27.43,0,0,0-12.72,7.39,23.53,23.53,0,0,0-6,11.66c-.66,3.33-1.05,6.7-1.4,10.07a23.27,23.27,0,0,0,.51,6.23A29.32,29.32,0,0,0,538,608.53a28.25,28.25,0,0,0,17.58,10.4c10.3,1.76,19.27-1,26.56-8.68A4,4,0,0,1,583.79,608.9Z" style="fill:#61dafb"/><path d="M645.52,616.75a15.28,15.28,0,0,1,.9,1.39c1,2.11,2,4.24,3.07,6.34a1.73,1.73,0,0,1,0,1.72,3.86,3.86,0,0,1-1.17,1.37,16.13,16.13,0,0,1-4.39,2.29,31.28,31.28,0,0,1-10.76,1.7,27.1,27.1,0,0,1-8.45-1.43A14.75,14.75,0,0,1,615,619.69a25,25,0,0,1-.67-6.73V563.58c0-.61,0-1.22,0-1.83,0-2-.19-2.13-2-2.15-2.35,0-4.71,0-7.06,0-1.39,0-2.79,0-4.18,0-1,0-1.27-.24-1.29-1.22-.05-2.35-.1-4.7,0-7.05,0-1.57.66-2.17,2.21-2.33a20.86,20.86,0,0,1,2.09,0c2.7,0,5.4,0,8.1,0,1.43,0,1.68-.31,1.74-1.68,0-.61,0-1.22,0-1.83V529c0-.69,0-1.39.09-2.08a.75.75,0,0,1,.69-.67,3,3,0,0,1,.51-.06c3.66,0,7.32,0,11,0,1.14,0,1.37.25,1.38,1.42,0,5.31,0,10.62,0,15.93,0,.79,0,1.57,0,2.36s.3,1.1,1.08,1.16c.61,0,1.22,0,1.83,0h12.28c.61,0,1.22,0,1.83,0,.85.05,1.1.29,1.17,1.07a4.52,4.52,0,0,1,0,.52c0,3.14,0,6.27,0,9.41,0,1.32-.19,1.5-1.53,1.52-3,0-6.1,0-9.15,0h-4.18c-2.25,0-2.35-.23-2.79,2.4a14,14,0,0,0-.1,2.34v45.2a17.52,17.52,0,0,0,.41,3.88c1,4.5,3.81,5.76,7.08,6.21a11.71,11.71,0,0,0,7.79-1.54C643.94,617.64,644.69,617.23,645.52,616.75Z" style="fill:#61dafb"/><path d="M662.24,295.75a42.91,42.91,0,0,0-6.61-15.24,68.71,68.71,0,0,0-14.26-15.17,123.49,123.49,0,0,0-21.08-13.49,198.29,198.29,0,0,0-18.81-8.47,256.7,256.7,0,0,0-33.26-10.72c-1.94-.47-2.29-.67-1.71-2.85,1.56-5.88,3-11.79,4.08-17.79.75-4.27,1.52-8.54,2-12.86s1.13-8.64,1.31-13c.38-9.22.29-18.43-1.32-27.59A71.86,71.86,0,0,0,565,136a44.73,44.73,0,0,0-19.91-19c-6.2-3-12.86-4.22-19.69-4.57a56.77,56.77,0,0,0-8.34.34,79.09,79.09,0,0,0-11.55,2,119.66,119.66,0,0,0-23.64,9,172.38,172.38,0,0,0-16.59,9.39,260.51,260.51,0,0,0-33.05,25.08c-.39.35-.78.69-1.19,1a.76.76,0,0,1-1,0,14.25,14.25,0,0,1-1.2-1c-4.56-4.17-9.31-8.13-14.18-11.93A228,228,0,0,0,391.07,130a140.15,140.15,0,0,0-31.56-14.27,83.53,83.53,0,0,0-18.2-3.23A54.38,54.38,0,0,0,325,114a43.09,43.09,0,0,0-20.33,11.23c-6.41,6.21-10.53,13.79-13.19,22.21a72,72,0,0,0-3,14.26c-.52,5.11-.91,10.22-1,15.36,0,3.58.49,7.12.59,10.69a58.93,58.93,0,0,0,.63,7.27c.76,5.07,1.63,10.12,2.51,15.17,1.07,6.09,2.49,12.09,4.13,18,.79,2.88.7,2.61-1.82,3.36-6.84,2-13.71,4-20.53,6.05a178.37,178.37,0,0,0-19.24,7.4,162.42,162.42,0,0,0-24.85,13.29A85.38,85.38,0,0,0,209,275.85c-4.87,6.08-8.48,12.77-9.59,20.57a37.47,37.47,0,0,0,.53,14.27,43.83,43.83,0,0,0,6.6,14.4A71.82,71.82,0,0,0,223,341.77c9.22,7,19.39,12.3,29.93,17,5.42,2.39,11,4.44,16.54,6.45a218.25,218.25,0,0,0,21.69,6.69c1.35.33,2.69.69,4,1a.84.84,0,0,1,.66,1,3.4,3.4,0,0,1-.16.77,218.55,218.55,0,0,0-5,22.37c-.46,2.56-.66,5.17-1.14,7.73A108.59,108.59,0,0,0,288.05,419c-.14,2.61,0,5.23,0,7.84a97.7,97.7,0,0,0,1.45,20.26A69.93,69.93,0,0,0,296.61,468a43.53,43.53,0,0,0,24.72,20.92A51.21,51.21,0,0,0,332,491.13a68.31,68.31,0,0,0,17.44-.26,87,87,0,0,0,18.39-4.82,158,158,0,0,0,30.39-15.59,249.43,249.43,0,0,0,27-20.13c1.59-1.36,3.16-2.74,4.76-4.08.77-.64,1.07-.61,1.8,0,2.13,1.8,4.26,3.59,6.36,5.42,4.08,3.54,8.33,6.86,12.65,10.1A217.61,217.61,0,0,0,475,477.66a134.58,134.58,0,0,0,27.77,12,70.92,70.92,0,0,0,14.31,2.81,68.94,68.94,0,0,0,15.12-.3,44.29,44.29,0,0,0,18.65-7A47.16,47.16,0,0,0,568.15,464a81.51,81.51,0,0,0,5.38-20.1c.72-4.58.52-9.21.93-13.8a50,50,0,0,0-.25-6c-.14-4.62-.56-9.19-1.08-13.78-.57-5.11-1.5-10.15-2.39-15.19a165.67,165.67,0,0,0-3.9-17c-.26-.92-.44-1.86-.61-2.8a1,1,0,0,1,.75-1.22,6.45,6.45,0,0,1,.75-.22c5.67-1.68,11.34-3.39,17-5a197.28,197.28,0,0,0,30.13-11.74,148.36,148.36,0,0,0,16-8.83,88.17,88.17,0,0,0,21.89-18.81A44.69,44.69,0,0,0,662.11,311,35.7,35.7,0,0,0,662.24,295.75ZM446.84,172.89c.89-.84,1.74-1.71,2.67-2.5,4.49-3.85,9-7.68,13.7-11.28a196.94,196.94,0,0,1,21.58-14.67,119,119,0,0,1,17.39-8.4,69.61,69.61,0,0,1,15.38-3.92,47.46,47.46,0,0,1,8.07-.36,24.82,24.82,0,0,1,13.9,4.67,26.51,26.51,0,0,1,7.57,8.87,50.1,50.1,0,0,1,5.1,15.53,82.17,82.17,0,0,1,1.31,16.62c-.16,5.47-.19,11-1.24,16.38-.29,1.45-.34,2.93-.53,4.4-.75,6-2.3,11.76-3.44,17.65-.58,3-1.43,5.91-2.17,8.86-.1.41-.28.8-.49,1.4-3-.53-5.71-1-8.45-1.49-5.06-.85-10.12-1.67-15.18-2.5-2.83-.46-5.66-.94-8.5-1.34-3.27-.45-6.55-.82-9.83-1.24-2.32-.29-4.65-.62-7-.89-2.16-.25-4.32-.44-6.48-.66-1.56-.17-3.11-.36-4.67-.52a2.38,2.38,0,0,1-1.66-1.13c-2-2.61-4-5.26-6.11-7.82-3.2-3.9-6.48-7.74-9.73-11.6-4.7-5.6-9.83-10.82-14.79-16.19-1.72-1.85-3.56-3.59-5.34-5.38-.37-.37-.72-.75-1.08-1.13A.85.85,0,0,1,446.84,172.89ZM329.93,340.59c1.95-4.74,4.1-9.4,6.16-14.09.1-.24.23-.47.53-.47s.45.2.58.44c1.94,3.39,3.81,6.83,5.84,10.17,2.49,4.08,5.09,8.09,7.69,12.11,3,4.59,6,9.15,9,13.73a19,19,0,0,1,2.47,3.84c-13.38-1.54-26.39-3.56-39.47-6.17a13.48,13.48,0,0,1,1.15-4C325.86,350.93,327.82,345.73,329.93,340.59Zm-5-88.28a46.31,46.31,0,0,1-2.06-6.19c-.16-.83,0-1.17.75-1.31,3.08-.57,6.15-1.15,9.24-1.67,5.06-.85,10.11-1.69,15.18-2.46q4.9-.74,9.84-1.23c1.28-.13,2.53-.69,4.05-.4a4.07,4.07,0,0,1-1.06,2.22c-4.28,6.46-8.61,12.88-12.84,19.37-3.76,5.76-7.31,11.65-10.49,17.75-.16.31-.33.62-.51.91a.51.51,0,0,1-.86,0c-1-2.11-2.15-4.19-3.07-6.35q-3-7-5.78-14C326.46,256.75,325.72,254.53,325,252.31Zm28.45,60.95c-1.78-3.29-3.54-6.59-5.35-9.86a1.77,1.77,0,0,1,0-1.94c2.1-3.82,4.14-7.66,6.24-11.47,4.38-7.93,9.12-15.63,14-23.26,6.38-10,13.25-19.62,20.08-29.29a3.72,3.72,0,0,1,3.24-1.69c4.86-.23,9.75-.32,14.6-.63,8.36-.54,16.72-.22,25.08-.34,5.4,0,10.81-.08,16.21,0,5.83.1,11.66.31,17.49.59,2,.1,4,.43,6,.39a2.61,2.61,0,0,1,2.37,1.27c3.52,4.76,7.05,9.51,10.31,14.45,4.61,7,9.26,13.92,13.72,21,3.57,5.67,7,11.43,10.19,17.33,1.82,3.37,3.67,6.72,5.51,10.08.16.3.3.63.49.92a2.72,2.72,0,0,1,.07,3.15c-1.75,3.11-3.32,6.32-5.09,9.42q-4.2,7.37-8.58,14.64-8.07,13.29-17,26-4.37,6.19-8.7,12.41c-.2.28-.38.58-.58.86a3.93,3.93,0,0,1-3.49,1.85c-6.35.05-12.71.42-19,.7-11.33.5-22.65.38-34,.22-5.74-.09-11.49-.2-17.23-.53-2.95-.17-5.9-.36-8.86-.43a2.84,2.84,0,0,1-2.43-1.24C383,360,377.27,352.21,372.13,344c-2.68-4.28-5.49-8.47-8.17-12.74Q358.4,322.43,353.4,313.26Zm148.47,49.68c4.38-6.6,8.87-13.12,13.12-19.8,3.36-5.29,6.42-10.76,9.62-16.15.22-.37.41-.77.64-1.13a.51.51,0,0,1,1,.06c.72,1.58,1.46,3.15,2.13,4.76,2.41,5.78,4.83,11.56,7.17,17.36,1.24,3.06,2.35,6.18,3.5,9.28a12.26,12.26,0,0,1,.46,1.49.78.78,0,0,1-.58,1c-1.1.28-2.19.58-3.3.76-5.83,1-11.62,2.14-17.48,2.9-4.23.55-8.42,1.27-12.64,1.87-1.71.24-3.43.38-5.58.61C500.74,364.67,501.3,363.8,501.87,362.94ZM528,274.89c-.67,1.5-1.39,3-2.25,4.84-2.94-5-5.67-9.51-8.34-14.09s-5.54-9.24-8.44-13.79-5.87-8.77-9.05-13.43c2.18.25,4,.42,5.76.66,3.18.44,6.36.92,9.54,1.39,3.77.57,7.56,1.1,11.33,1.73,3.51.59,7,1.29,10.5,1.94.51.1,1,.17,1.53.32.88.26,1.1.65.79,1.56-.78,2.31-1.56,4.62-2.43,6.89C534.15,260.3,531.24,267.66,528,274.89ZM428.26,190.5c.54-.57,1.09-1.13,1.66-1.67.92-.87,1.23-.91,2.17,0q3.54,3.66,7,7.39c4.1,4.39,8.14,8.83,12,13.41,1.46,1.73,3,3.42,4.44,5.13a11.14,11.14,0,0,1,.63,1,9,9,0,0,1-1.59,0,23,23,0,0,0-4.69-.32H412.29a22.33,22.33,0,0,0-4.69.3,6.42,6.42,0,0,1-1.45,0,1.52,1.52,0,0,1,.51-1.53c4.24-5,8.47-9.94,13-14.66C422.52,196.57,425.38,193.53,428.26,190.5Zm-117.1-35a38.16,38.16,0,0,1,5.68-12.83,26.78,26.78,0,0,1,6.57-6.65,24.42,24.42,0,0,1,12.71-4.24c1-.08,2.09,0,3.14,0a53.72,53.72,0,0,1,15.41,2.41,104.22,104.22,0,0,1,22.21,9.71,175.73,175.73,0,0,1,21,14.1c3.65,2.82,7.16,5.82,10.72,8.76,1.74,1.44,3.44,2.93,5.15,4.42.66.57,1.28,1.18,1.91,1.78a.77.77,0,0,1,.08,1.16c-.34.39-.71.77-1.08,1.13C409.75,180,405,185,400.44,190.17c-4.76,5.32-9.5,10.66-13.93,16.27-2.64,3.34-5.39,6.61-8.06,9.93a2.82,2.82,0,0,1-2.18,1.18c-3.9.3-7.8.62-11.69,1.06-5,.57-10,1.23-15,1.91-5.17.71-10.34,1.41-15.48,2.29-5,.84-9.91,1.87-14.85,2.88-2.83.57-2.85.62-3.53-2.13-1.46-5.91-2.68-11.86-3.82-17.84-.93-4.88-1.48-9.8-2.3-14.68a58,58,0,0,1-.6-7.8c-.11-3.49,0-7-.09-10.46A68,68,0,0,1,311.16,155.49Zm-8.6,197.91c-.08.25-.18.49-.28.73-.31.76-.62.93-1.42.71-2-.54-4-1.09-6-1.68a261.12,261.12,0,0,1-31-10.87,137.59,137.59,0,0,1-25.15-13.74,62.93,62.93,0,0,1-10.43-9.05,31.4,31.4,0,0,1-7.13-11.72,19.17,19.17,0,0,1-.68-5.41A21.11,21.11,0,0,1,224,290.55a46.68,46.68,0,0,1,11.57-12.29,119.9,119.9,0,0,1,24.8-14.34,212.16,212.16,0,0,1,23.63-9c5.3-1.66,10.67-3.13,16-4.68a6.32,6.32,0,0,1,1.28-.26.81.81,0,0,1,.85.47,8.12,8.12,0,0,1,.43,1c2.57,7.58,5.5,15,8.52,22.43,1.58,3.86,3.29,7.68,5,11.47,2.4,5.21,4.87,10.39,7.37,15.56a3.23,3.23,0,0,1,0,3.17c-1.92,3.8-3.77,7.64-5.6,11.49-1.38,2.91-2.73,5.83-4,8.78-1.86,4.31-3.7,8.62-5.43,13C306.35,342.57,304.23,347.91,302.56,353.4ZM415.48,432c-2.34,2.08-4.65,4.21-7.05,6.22-5.35,4.46-10.79,8.8-16.47,12.84a154.38,154.38,0,0,1-26.07,15.35,78.65,78.65,0,0,1-16,5.43,66.16,66.16,0,0,1-10.81,1.36,30.86,30.86,0,0,1-13.41-3.05,24.66,24.66,0,0,1-10.1-9.91,47.6,47.6,0,0,1-5.17-14.41c-1.77-8.45-1.63-17-1.3-25.48.15-3.89.76-7.77,1.26-11.65.53-4.06,1.29-8.07,2.12-12.07.93-4.51,2-9,3-13.48.27-1.18.52-2.38.85-3.54.23-.79.58-1,1.37-.83,1.8.32,3.6.62,5.39,1q9.07,1.77,18.25,3.06c4.3.62,8.58,1.34,12.89,1.92,3.53.47,7.08.79,10.62,1.21s7.07.91,10.63,1.11a4.44,4.44,0,0,1,3.45,2c4.88,6.35,9.86,12.62,15.18,18.61q4.93,5.56,10,11c3.54,3.85,7.21,7.56,10.9,11.25.19.18.37.37.55.57C416.14,431.16,416.15,431.39,415.48,432Zm16.88-16.47c-.18.19-.37.37-.56.55-.86.78-1,.78-1.93-.09s-1.85-1.84-2.75-2.79c-1.37-1.45-2.69-3-4.08-4.39-5.29-5.41-10.25-11.12-15.18-16.85-.67-.78-1.25-1.64-2.1-2.77,2.66,0,4.91-.12,7.15.05,1.47.11,2.94.22,4.42.22,9,0,18.09,0,27.14,0,3.21,0,6.42-.25,9.63-.38.59,0,1.18,0,1.73,0,.22.78-.32,1.07-.63,1.44-4,4.71-8,9.37-12.19,13.91C439.53,408.2,435.91,411.82,432.36,415.52ZM551.52,446.1a42.06,42.06,0,0,1-5.69,15,25.19,25.19,0,0,1-11,9.74,24.46,24.46,0,0,1-6.76,1.88,30.82,30.82,0,0,1-6.5.38,68.73,68.73,0,0,1-12.34-1.92A105.12,105.12,0,0,1,483,459.77a178.49,178.49,0,0,1-16.48-11c-4.39-3.29-8.68-6.69-12.82-10.29-2.1-1.83-4.22-3.63-6.32-5.46a15.58,15.58,0,0,1-1.27-1.3.72.72,0,0,1,0-1c.44-.53.93-1,1.41-1.53,3.16-3.25,6.37-6.43,9.46-9.74,3.87-4.12,7.61-8.36,11.31-12.64,3.87-4.48,7.59-9.08,11.35-13.64,1.21-1.48,2.39-3,3.56-4.51a2.94,2.94,0,0,1,2.37-1.38c.6,0,1.2-.23,1.8-.28,4.42-.4,8.84-.7,13.25-1.2,4.83-.54,9.64-1.29,14.46-1.9,6.73-.85,13.4-2,20.06-3.28,3-.55,6-1.19,9-1.78,1-.2,1.37,0,1.6.77,1.29,4.52,2.33,9.09,3.23,13.7.46,2.39.93,4.77,1.33,7.17a128.45,128.45,0,0,1,1.93,13.67c.14,2.43.63,4.83.77,7.26s0,4.87,0,7.31A70.78,70.78,0,0,1,551.52,446.1Zm86.89-132.69c-3.24,5.62-7.87,9.94-13,13.81A123.83,123.83,0,0,1,601.22,341,216.46,216.46,0,0,1,580.78,349c-6.35,2.12-12.76,4.06-19.25,5.74a5.26,5.26,0,0,1-.75.21,1,1,0,0,1-1-.6c-.33-.8-.62-1.62-.9-2.45-2.25-6.59-4.81-13.06-7.43-19.51-2.09-5.15-4.5-10.19-6.71-15.3-2-4.47-4.16-8.82-6.36-13.17a2.9,2.9,0,0,1,0-2.92c2.85-5.77,5.75-11.53,8.41-17.4,3.16-7,6.19-14,8.81-21.21,1.24-3.43,2.45-6.88,3.67-10.33.12-.32.2-.67.32-1,.41-1.07.71-1.25,1.76-1s2.35.61,3.53.94a264.08,264.08,0,0,1,32.8,11.31,139.33,139.33,0,0,1,23.27,12.35,69.37,69.37,0,0,1,12.1,9.91,36.33,36.33,0,0,1,6.79,9.84,20.77,20.77,0,0,1,1.77,7.8A22.41,22.41,0,0,1,638.41,313.41Z" style="fill:#61dafb"/><path d="M284.87,606.24c-4-5.59-8-11.15-12.06-16.73-1-1.41-2-2.84-3-4.27a.71.71,0,0,1,.45-1c1.28-.24,2.57-.41,3.85-.68a38,38,0,0,0,11.46-4.25c4.39-2.56,7.59-6.31,10.37-10.48a29.13,29.13,0,0,0,4.48-11.33,22.08,22.08,0,0,0,.54-6,45.78,45.78,0,0,0-3.55-14.38,29.37,29.37,0,0,0-16.14-15.88,41.12,41.12,0,0,0-15.54-3c-17-.07-34,0-51,0-2.59,0-2.6-.08-2.58,2.58v102c0,.79,0,1.57,0,2.36,0,1.14.25,1.37,1.4,1.38,3,0,6.11,0,9.15,0,3.34,0,3.08.22,3.08-3.14q0-17.25,0-34.51c0-.78,0-1.57.05-2.35a.85.85,0,0,1,.83-.83,11.48,11.48,0,0,1,1.31-.05h19.35c.26,0,.52,0,.78,0a6.61,6.61,0,0,1,5.36,2.78c.5.71,1,1.41,1.53,2.12l8.54,12.19q7,10.05,14.08,20.09,1.58,2.25,3.17,4.47a5,5,0,0,0,4.65,2.3c4.09-.16,8.19,0,12.29-.06,1,0,2.07.29,3-.25.09-1.28-.92-2-1.54-2.86Q292.11,616.31,284.87,606.24Zm-24.11-33.6c-3.47.05-6.95,0-10.43.28a48.37,48.37,0,0,1-4.94-.21c-5.75-.06-11.49-.06-17.24-.1-2.3,0-2.33,0-2.33-2.3q0-18.4,0-36.82c0-.44,0-.88,0-1.31a.86.86,0,0,1,.81-.86c.69-.05,1.39-.06,2.08-.06h14.63c3.91,0,7.83.06,11.75,0a69.92,69.92,0,0,1,10.14.65c7.06.89,12.64,4.36,16.07,10.71a18.74,18.74,0,0,1,2.15,12.1c-1.06,6.69-4.76,11.42-10.51,14.71A24.84,24.84,0,0,1,260.76,572.64Z" style="fill:#61dafb"/><path d="M402.37,578.56a69.56,69.56,0,0,0-2.54-7.67,38.71,38.71,0,0,0-12.75-16.23c-9.17-6.75-19.62-8.67-30.71-7.56a46.61,46.61,0,0,0-18,5.81,37.55,37.55,0,0,0-18.55,22.91,50.15,50.15,0,0,0-1.83,11,44.67,44.67,0,0,0,2.35,18.51,37.07,37.07,0,0,0,9.21,14.08A43.36,43.36,0,0,0,343,628.32a42.19,42.19,0,0,0,13.63,3.3,85.38,85.38,0,0,0,15.9-.39,45.29,45.29,0,0,0,23.23-9.87,10.47,10.47,0,0,0,1.14-1.07c.6-.63.66-1,.17-1.6a92.19,92.19,0,0,0-6.17-7.39c-.67.43-1.2.73-1.68,1.1a47.39,47.39,0,0,1-9.2,5.44,37.29,37.29,0,0,1-12.28,3.33,38.32,38.32,0,0,1-14.7-1.61,25.59,25.59,0,0,1-8.87-4.31,31.82,31.82,0,0,1-11.29-19.44c-.46-2.47.15-2.29,2-2.28h64.56c.78,0,1.56,0,2.35,0,1.12,0,1.31-.24,1.33-1.45,0-2.79,0-5.58.07-8.37A16.85,16.85,0,0,0,402.37,578.56Zm-13.87,6.1c-.69,0-1.39,0-2.08,0H336.29c-3,0-3,.18-2.85-3.07a18.51,18.51,0,0,1,3.19-9.26,28.42,28.42,0,0,1,20.65-13.21c7.07-.95,14.07-.15,20.45,3.58a22.44,22.44,0,0,1,9.32,10.56,38.59,38.59,0,0,1,2.35,9.3,5.25,5.25,0,0,1,0,1A.91.91,0,0,1,388.5,584.66Z" style="fill:#61dafb"/><path d="M493.58,567.32a18.87,18.87,0,0,0-6.51-12.66,27.65,27.65,0,0,0-12.58-6,63,63,0,0,0-6.69-1.09,82.09,82.09,0,0,0-13.3-.53,50.24,50.24,0,0,0-6.48.64,44.42,44.42,0,0,0-16.63,6.62,38.78,38.78,0,0,0-6.35,5c-.68.7-.71,1.07-.17,1.84,1.67,2.33,3.35,4.67,5.05,7,.75,1,1.09,1,2.13.29,2.41-1.71,4.68-3.61,7.21-5.17,7.41-4.54,15.47-5.48,23.9-4.49a26.75,26.75,0,0,1,6.1,1.35,15,15,0,0,1,7.33,5.2,16.84,16.84,0,0,1,2.28,5.51,49.61,49.61,0,0,1,.75,5.68c.53,3.3.28,6.61.37,9.91,0,.69-.66,1-1.31.63a11.25,11.25,0,0,1-1.06-.75,43.39,43.39,0,0,0-8.8-5.1A39.42,39.42,0,0,0,452,578a47.41,47.41,0,0,0-8.29.87,32.35,32.35,0,0,0-13,5.25,24,24,0,0,0-5.87,5.9,25.8,25.8,0,0,0-4,20.67,23.83,23.83,0,0,0,10.85,15.67c6.18,4,13.1,5.46,20.36,5.67,2.83-.5,5.72-.25,8.57-.79a26.37,26.37,0,0,0,8.38-2.74c2.28-1.29,4.5-2.66,6.74-4a32.8,32.8,0,0,1,5.18-2.66v2.54c0,2.69,0,2.64,2.52,2.63h7.58c2.79,0,2.81,0,2.82-2.72q.07-20.38.12-40.78A156.06,156.06,0,0,0,493.58,567.32Zm-13.77,33.44a11,11,0,0,0-.21,3.61,24.43,24.43,0,0,1-.42,6.21,9.52,9.52,0,0,1-4.37,6.25,34.74,34.74,0,0,1-11.11,4.37,34.34,34.34,0,0,1-7.83.65,24.65,24.65,0,0,1-10.36-2.08,17.22,17.22,0,0,1-8.66-7.62,14.44,14.44,0,0,1-1.51-10.59C436.87,595,441,591,447.3,589a33.86,33.86,0,0,1,8.95-1.63,31,31,0,0,1,11.51,1.91,38.28,38.28,0,0,1,7.46,3.74,14.87,14.87,0,0,1,3.49,3.13A4.86,4.86,0,0,1,479.81,600.76Z" style="fill:#61dafb"/><path d="M473.27,302.28A35.94,35.94,0,0,1,463,327.87a41.92,41.92,0,0,1-23.53,12.6,42.35,42.35,0,0,1-9.59.89,44.75,44.75,0,0,1-26.18-9.19A38.09,38.09,0,0,1,389.12,309a33.32,33.32,0,0,1-.35-10.65A37.35,37.35,0,0,1,400.86,275a42.57,42.57,0,0,1,20.68-10.53,45,45,0,0,1,12.72-.88,44.3,44.3,0,0,1,19.53,6,40.91,40.91,0,0,1,12.65,11.53,35.12,35.12,0,0,1,6.32,15C473.1,298.23,473.12,300.3,473.27,302.28Z" style="fill:#61dafb"/></svg>