<svg id="Capa_1" data-name="Capa 1" xmlns="http://www.w3.org/2000/svg" viewBox="0 0 853 780"><path d="M443.54,709.59c-169.16,0-307.3-137.32-306.39-308.34A306.31,306.31,0,0,1,288.86,138.63c48.35-28.34,100.7-42.13,156.75-41.88A306.35,306.35,0,0,1,750,405.33C749,572.23,613.29,709.5,443.54,709.59Z" style="fill:#379ad6"/><path d="M443.66,291.29h129c.64,0,1.28,0,1.91,0,.47,0,.68.27.64.75q-.18,2.19-.39,4.38c-.19,1.9-.42,3.8-.59,5.71-.44,4.82-.83,9.65-1.28,14.47s-.93,9.51-1.38,14.27c-.31,3.37-.57,6.73-.88,10.1s-.67,6.85-1,10.27c-.16,1.65-.31,3.3-.46,5-.5,5.4-1,10.79-1.5,16.19-.31,3.42-.58,6.86-.9,10.28s-.68,6.85-1,10.28-.58,6.86-.9,10.28-.65,6.73-1,10.09c-.15,1.58-.31,3.17-.44,4.76-.31,3.49-.58,7-.9,10.48-.31,3.3-.67,6.59-1,9.89s-.58,6.73-.89,10.09c-.33,3.56-.68,7.11-1,10.66-.14,1.52-.29,3-.43,4.57-.43,4.89-.83,9.78-1.28,14.67-.44,4.69-.94,9.38-1.38,14.08-.32,3.42-.57,6.86-.89,10.28s-.65,6.73-1,10.09c-.15,1.58-.3,3.17-.44,4.76-.43,4.82-.83,9.65-1.28,14.47s-.93,9.52-1.37,14.28c-.32,3.42-.6,6.85-.9,10.28,0,.26,0,.51,0,.77a1.64,1.64,0,0,1-1.46,1.69c-3.89,1-7.76,2.06-11.63,3.11l-38.94,10.49-33.6,9c-6.7,1.8-13.41,3.59-20.11,5.42a5.12,5.12,0,0,1-2.8,0q-24.43-6.62-48.9-13.16L338.1,559.2l-.74-.2a1.07,1.07,0,0,1-.88-1.08c-.08-1.21-.24-2.41-.34-3.62-.3-3.36-.57-6.73-.88-10.09s-.67-6.85-1-10.28c-.15-1.59-.29-3.17-.43-4.76-.43-4.82-.83-9.65-1.28-14.47s-.93-9.39-1.37-14.09c-.32-3.49-.59-7-.91-10.47s-.68-6.85-1-10.28-.58-6.73-.88-10.09-.68-7-1-10.47c-.15-1.59-.3-3.17-.44-4.76-.43-4.83-.83-9.65-1.28-14.48s-.94-9.64-1.39-14.46c-.32-3.43-.58-6.86-.9-10.29s-.67-6.72-1-10.08-.58-6.6-.89-9.9c-.32-3.56-.67-7.11-1-10.66-.15-1.59-.3-3.17-.44-4.76-.43-4.83-.83-9.65-1.28-14.48s-.93-9.51-1.37-14.27c-.32-3.43-.59-6.86-.91-10.29s-.66-6.85-1-10.27c-.15-1.52-.29-3.05-.43-4.57-.43-4.89-.84-9.78-1.28-14.67q-.75-8.28-1.53-16.56c-.09-.95-.21-1.9-.27-2.85a.54.54,0,0,1,.57-.62c.64,0,1.28,0,1.91,0H443.66Z" style="fill:#fff"/><path d="M448.3,236.13a4.48,4.48,0,0,0,1.35,1.71q6.47,6.39,13,12.75a6.88,6.88,0,0,0,.54.54,2.46,2.46,0,0,1,.92,2.18c0,4.33,0,8.67,0,13,0,.32,0,.64,0,.95a.63.63,0,0,1-.6.62l-1.34,0H425.34c-2,0-1.94.06-1.93-1.84V253.85c0-.32,0-.64,0-1,0-.55.26-.76.86-.8s1,0,1.53,0H439c.29-.55-.14-.75-.38-1l-11.3-11.16c-1.09-1.07-2.16-2.17-3.26-3.24a2,2,0,0,1-.62-1.53q0-7.65,0-15.31v-.19c0-.78.23-1,1.07-1,.32,0,.64,0,1,0h37.31c1.19,0,1.29.12,1.3,1.35,0,4.91,0,9.82,0,14.73a4.84,4.84,0,0,1,0,.76.6.6,0,0,1-.61.6c-.51,0-1,0-1.53,0H448.3Z" style="fill:#fff"/><path d="M505.79,236.13a5.32,5.32,0,0,0,1.37,1.64l13.12,12.85c.27.27.53.55.82.8a1.83,1.83,0,0,1,.62,1.53c0,1.59,0,3.19,0,4.78V266c0,.44,0,.89,0,1.34a.59.59,0,0,1-.61.59c-.44,0-.89,0-1.34,0H483c-2,0-1.91.08-1.91-1.84V253.85c0-.38,0-.77,0-1.15a.6.6,0,0,1,.62-.59c.51,0,1,0,1.53,0h12.05a6.18,6.18,0,0,0,1.14-.06.28.28,0,0,0,.16-.45q-.69-.8-1.44-1.53-5.94-5.82-11.89-11.64a10.8,10.8,0,0,1-2-2.25c-.48-.88-.16-2-.17-3,0-4.08,0-8.16,0-12.24,0-.51,0-1,0-1.53a.69.69,0,0,1,.74-.69h37.88c2.17,0,2,.11,2,2v13.58c0,.44,0,.89-.05,1.33a.5.5,0,0,1-.48.5c-.51,0-1,.05-1.53.05H505.79Z" style="fill:#fff"/><path d="M365.48,243.26v-22c0-.38,0-.76,0-1.15,0-1.43,0-1.43,1.54-1.45h.77q17.9,0,35.79,0c2.84,0,2.51-.12,2.52,2.43,0,4.28,0,8.55,0,12.83,0,.51,0,1,0,1.53s-.29.67-.74.68l-1.53,0H385.25c-.51,0-1,0-1.53,0-.72,0-.85.18-.89,1,0,.44,0,.89,0,1.34v11.29c0,.44,0,.89,0,1.34,0,.79.23,1,1.07,1,.51,0,1,0,1.53,0H404c2.25,0,2.11-.09,2.11,2.05V266c0,.44,0,.89,0,1.33a.59.59,0,0,1-.63.58c-.51,0-1,0-1.53,0H367c-1.46,0-1.48,0-1.48-1.51Q365.47,254.84,365.48,243.26Z" style="fill:#fff"/><path d="M447.1,377.41c-3.27,0-6.13,0-9,0-5.61,0-11.23,0-16.84.1-18,.34-36,.18-54,.38-.51,0-1,.05-1.52.07-.9,0-1.14-.12-1.28-1-.31-2-.57-4-.87-6.06-.46-3.15-.93-6.3-1.39-9.45-.57-3.85-1.12-7.69-1.68-11.54-.18-1.26-.36-2.52-.52-3.79-.07-.61.11-.79.73-.82.45,0,.89,0,1.34,0l55.5-.05,68.31-.07q17.61,0,35.21-.07c1,0,2-.09,3.06-.09.69,0,.93.27.88.95-.12,1.84-.26,3.69-.4,5.53-.23,3.12-.46,6.23-.71,9.34-.32,4.2-.67,8.39-1,12.58-.08,1.08-.12,2.17-.17,3.25a1,1,0,0,1-.59.91c-.63.3-1.27.58-1.92.86L471,399.25,445.62,410c-.57.24-1.12.53-1.66.78.1.48.42.33.62.34.77,0,1.53,0,2.3,0h71.38c1.48,0,1.49.06,1.34,1.51q-.27,2.67-.48,5.34c-.3,3.81-.58,7.62-.9,11.43s-.66,7.49-1,11.24c-.15,1.71-.3,3.43-.43,5.14-.31,3.94-.58,7.89-.91,11.83-.3,3.61-.67,7.23-1,10.85-.18,2.16-.31,4.32-.49,6.48-.2,2.35-.42,4.7-.63,7.05-.15,1.77-.3,3.55-.44,5.33-.3,3.88-.58,7.76-.9,11.63-.33,4.07-.71,8.13-1.05,12.19-.05.58-.21,1-.83,1.09-1,.24-2,.56-2.94.83L466.2,524.55l-20.81,5.78a5.62,5.62,0,0,0-.55.15,4.17,4.17,0,0,1-3,0c-2.07-.64-4.15-1.23-6.23-1.84l-46.06-13.42c-3.91-1.14-7.82-2.32-11.74-3.42a1.49,1.49,0,0,1-1.28-1.58c-.19-3-.48-6-.74-8.95q-.49-5.62-1-11.24c-.15-1.65-.28-3.3-.41-4.95-.3-3.81-.58-7.63-.9-11.44-.3-3.62-.64-7.24-1-10.85,0-.19,0-.38,0-.58a.56.56,0,0,1,.52-.66,11.91,11.91,0,0,1,1.34-.06h28.89c1.91,0,1.89,0,2,1.88.36,4.44.75,8.89,1.11,13.34.18,2.35.34,4.7.51,7.05,0,.13,0,.26,0,.38.45,3.36-.12,2.62,2.78,3.43,10.93,3,21.88,6,32.81,9a6,6,0,0,0,3.54-.05c9.44-2.89,18.9-5.73,28.35-8.59,1.77-.54,3.53-1.1,5.3-1.62a1.28,1.28,0,0,0,1.11-1.3c.2-3.69.46-7.38.71-11.06.2-3.06.42-6.11.63-9.16q.24-3.72.46-7.45c.17-3,.32-6,.5-9,.08-1.27.21-2.54.27-3.82,0-.84-.1-1-1-1-.57,0-1.14,0-1.72,0H372.37c-.64,0-1.28,0-1.92,0a.69.69,0,0,1-.7-.73c-.1-1.15-.22-2.29-.29-3.43-.18-2.8-.31-5.61-.49-8.41-.2-3-.43-6-.62-9-.21-3.25-.37-6.49-.59-9.74a1.41,1.41,0,0,1,1-1.58c6.36-2.65,12.69-5.33,19-8l35.76-15.08q10.4-4.38,20.8-8.76A10.37,10.37,0,0,0,447.1,377.41Z" style="fill:#379ad6"/></svg>