<svg id="Capa_1" data-name="Capa 1" xmlns="http://www.w3.org/2000/svg" viewBox="0 0 853 780"><g style="opacity:0.66"><text transform="translate(301.25 455.78) rotate(-89.59)" style="font-size:15.27589225769043px;fill:#c6c6c6;font-family:Righteous-Regular, Righteous">Diseño</text></g><path d="M206.52,258.43l-31,30.91,21.6,161.43S223,480.29,224.43,481s44.41-18.58,45.55-20.42,34.9-36.32,37.77-37,22.22-25.92,26.19-28-12.55-39.27-12.55-41-37.27-47.83-39.82-50.1-57.14-42.62-57.14-42.62Z" style="fill:#fff"/><path d="M246.75,343.85l17.87,17.88c3.65,3.65,7.29,7.32,11,10.93a1.74,1.74,0,0,1,.48,2.15,22.07,22.07,0,1,0,24.2-14.58,21.31,21.31,0,0,0-9.56.64,1.53,1.53,0,0,1-1.8-.47q-15.14-15.18-30.31-30.32a1.55,1.55,0,0,1-.52-1.78A21.9,21.9,0,0,0,241,300.43a20.32,20.32,0,0,0-10,.47,1.77,1.77,0,0,1-2-.56q-15.63-15.68-31.31-31.28c-.74-.74-.74-1.09,0-1.83q12.51-12.42,25-24.91a18.46,18.46,0,0,1,26.73,0q21.06,21,42.07,42l83,82.91c6.81,6.81,7.79,16.77,2.38,24.3a22.38,22.38,0,0,1-2.25,2.62Q312.33,456.35,250.1,518.52c-7.82,7.82-19.18,7.8-27,0Q160.61,456.07,98.14,393.64c-7.77-7.77-7.77-19.13,0-26.9q42.36-42.35,84.71-84.69c.86-.86,1.32-.95,2.23,0q15.25,15.36,30.61,30.62a1.72,1.72,0,0,1,.5,2.12A21.85,21.85,0,0,0,227.5,342a1.65,1.65,0,0,1,1.08,1.78q0,38.24,0,76.46a1.63,1.63,0,0,1-1,1.8,22,22,0,1,0,25.94,5.29,20,20,0,0,0-5.44-4.43,2.15,2.15,0,0,1-1.31-2.22q.06-34,0-68Z" style="fill:#dd4b36"/><path d="M692.29,372.84q0-19.08,0-38.16c0-2.53-.34-2.89-2.84-2.89-5.81,0-11.62,0-17.43,0-1,0-1.22-.29-1.21-1.24q.06-11,0-22c0-1,.21-1.33,1.26-1.45a45.73,45.73,0,0,0,16.2-4.7c8.25-4.39,12.85-11.6,15.64-20.21A88,88,0,0,0,707.46,264c.13-1.24.55-1.47,1.69-1.46q11.61.08,23.24,0c1.13,0,1.44.24,1.43,1.41q-.06,18.74,0,37.47c0,2.67.24,2.92,2.91,2.92,12.22,0,24.44,0,36.66,0,1.16,0,1.42.3,1.41,1.43q-.07,12.38,0,24.75c0,1.11-.3,1.34-1.36,1.33-12.77,0-25.55,0-38.32,0-.93,0-1.34.07-1.34,1.22q.07,33.11.06,66.22a44.38,44.38,0,0,0,.8,8.52c1.44,7.46,5.82,11.34,13.39,12,8.8.79,17.24-.86,25.49-3.75,1-.34,1.32-.28,1.65.81,2.19,7.31,4.46,14.59,6.73,21.87.24.78.16,1.17-.67,1.55a110,110,0,0,1-39.55,10.36,75.87,75.87,0,0,1-23.87-2q-18.94-4.92-23.58-23.89a68,68,0,0,1-1.89-16c-.06-11.93,0-23.87,0-35.8Z" style="fill:#2f2707"/><path d="M655,365.53v55.31c0,.78,0,1.57.08,2.34.2,2.47.78,3.11,3.26,3.46,4.65.66,9.3,1.33,14,1.9,1,.12,1.17.48,1.16,1.37,0,6.45,0,12.9,0,19.35,0,1-.31,1.18-1.24,1.18q-38,0-76,0c-1,0-1.2-.29-1.2-1.23q.07-9.69,0-19.36c0-.94.27-1.21,1.21-1.32,4.53-.57,9-1.21,13.55-1.88,2.78-.41,3.5-1.27,3.61-4.1,0-.78,0-1.56,0-2.35q0-39.25,0-78.53c0-.83,0-1.66-.06-2.48a4.6,4.6,0,0,0-3.36-4.4c-4.65-1.6-9.26-3.3-13.92-4.88-.93-.31-1-.72-.93-1.58.93-6.61,1.84-13.23,2.69-19.85.13-1,.49-1.25,1.48-1.25q27.11,0,54.23,0c1.2,0,1.42.37,1.41,1.48Q655,337.12,655,365.53Z" style="fill:#2f2707"/><path d="M605.85,260.58a29.2,29.2,0,0,1,1.88-10.95A19,19,0,0,1,620.07,238a33.15,33.15,0,0,1,22.34.44,18.76,18.76,0,0,1,11.78,12.66,31.56,31.56,0,0,1-.22,19.69,19.57,19.57,0,0,1-12.92,12.84,32.13,32.13,0,0,1-19.71.33c-8.26-2.45-13-8.15-14.8-16.41A32.28,32.28,0,0,1,605.85,260.58Z" style="fill:#2f2707"/><path d="M582.22,311.34c0-1.17-.3-1.41-1.44-1.41-16.09,0-32.19,0-48.28,0a26.19,26.19,0,0,1-7.11-.76,40.63,40.63,0,0,0-5-.91,120,120,0,0,0-24.7-.82,78.18,78.18,0,0,0-23.83,5c-9.44,3.72-17.47,9.34-23.07,17.94-8.49,13-10.18,27.36-7,42.28,2.7,12.67,9.81,22.36,21.38,28.53,1.15.62.34.94-.07,1.32-5.33,4.91-10.59,9.87-15.6,15.1a32.77,32.77,0,0,0-7.09,10.28c-3.09,7.55-1.1,16.54,4.81,21.61a24.74,24.74,0,0,0,5.94,3.6c-2.07,2-4.08,3.93-6,5.9-6.66,6.84-9.86,15-9.1,24.57a25.7,25.7,0,0,0,7.6,17c5,4.94,11.23,7.77,17.85,9.82A117.24,117.24,0,0,0,489,514.94c14.25.89,28.47.83,42.59-1.73,10-1.82,19.66-4.81,28.34-10.31,9-5.7,15.49-13.39,18.56-23.72a50.18,50.18,0,0,0,1.12-22.3c-1.31-8.41-5.06-15.42-12.32-20.26a46.71,46.71,0,0,0-14.42-6.09c-10.58-2.73-21.43-3.61-32.27-4.39-12.28-.87-24.57-1.56-36.85-2.33l-5.95-.4c3-4.77,5.84-9.37,8.68-14,.31-.5.66-.5,1.16-.38a92.76,92.76,0,0,0,29.67,1.85,65.93,65.93,0,0,0,26.83-7.81c17.66-9.88,24.58-27.25,22.64-45.45-.84-7.86-4.11-14.73-8.76-21-.31-.42-.83-.75-.79-1.43,7.88-.59,15.73-1.21,23.59-1.74,1.11-.08,1.45-.37,1.44-1.52C582.16,325.08,582.15,318.21,582.22,311.34ZM499.35,462.13q11.38.78,22.75,1.59a41.37,41.37,0,0,1,11.26,1.95c4.45,1.63,6.2,4.27,5.89,9a11.43,11.43,0,0,1-5.07,8.78c-3.75,2.71-8.12,3.82-12.57,4.62q-2.85.51-5.75.79c-4.4.42-8.83.53-14.48.57-6.15-.09-13.52-.25-20.72-2.16a26.07,26.07,0,0,1-5.77-2.22c-6.17-3.37-8.12-9.11-5.29-15.57a39.92,39.92,0,0,1,5.51-8.4c.43-.56.94-.46,1.48-.42Q488,461.37,499.35,462.13Zm30.32-95.5c-2.16,7.07-7,11.72-13.89,14.06a34.76,34.76,0,0,1-23.17-.19c-7.08-2.48-11.23-7.58-12.64-14.91a31.62,31.62,0,0,1,.73-15.43c2.65-8.61,8.86-13.22,17.43-15a40,40,0,0,1,7.64-.72,29.9,29.9,0,0,1,13.56,2.89,19.45,19.45,0,0,1,10,12.07A28.8,28.8,0,0,1,529.67,366.63Z" style="fill:#2f2707"/></svg>