<svg id="Capa_1" data-name="Capa 1" xmlns="http://www.w3.org/2000/svg" viewBox="0 0 853 780"><path d="M711.92,437.68c.07,3.14,1.82,5.25,5.37,6.46a63.33,63.33,0,0,0,9,2c7.15,1.32,14.32,2.56,20.84,6,5.73,3.07,9,7.91,10.21,14.2.19,1,.32,2.07.48,3.1.18.53-.05,1.1.16,1.62v3.32c-.21.44,0,.94-.16,1.38a23.26,23.26,0,0,1-2.86,8.15c-2.89,4.75-7.19,7.67-12.33,9.52a41.93,41.93,0,0,1-7.35,1.79c-.36.18-.78,0-1.15.17-.42,0-.89-.19-1.24.23h-2a1.23,1.23,0,0,0-1.09,0h-3.28a2.23,2.23,0,0,0-1.53,0h-2.4c-.26-.41-.66-.22-1-.24-.37-.19-.8,0-1.17-.16a39.57,39.57,0,0,1-9.58-2.22A25.19,25.19,0,0,1,698,483.1c-.35-.53-.64-1.1-1-1.65-.22-.17-.45-.34-.37-.68a33.68,33.68,0,0,1-1.87-5.36c-.17-.83-.23-1.66-.4-2.48-.17-.37,0-.79-.17-1.16l-.06-1.67a2.6,2.6,0,0,1,0-1.3c-.06-.7.25-.89.94-.89q7.37,0,14.73,0c.61,0,.92.11,1,.8a14.58,14.58,0,0,0,.49,2.23c1.42,5.4,4.84,8.56,10.41,9.46a26.22,26.22,0,0,0,12-.5c5.48-1.64,7.17-6.13,6.35-11.3-.38-2.34-2-3.87-4-5.07a25.72,25.72,0,0,0-8.8-3c-2.67-.49-5.41-.67-8.07-1.16a52.29,52.29,0,0,1-9.36-2.61,33.54,33.54,0,0,1-7.13-3.77,19.45,19.45,0,0,1-6.19-7.13,19.9,19.9,0,0,1-2.14-7.59c-.17-.46,0-.95-.16-1.4V434.6c.2-.36,0-.79.17-1.16a22.23,22.23,0,0,1,4-10.66,20.59,20.59,0,0,1,8.82-6.78,46.09,46.09,0,0,1,10.8-2.88c.36-.19.78,0,1.14-.17l.82-.06c.39-.15.82,0,1.2-.16l1.43-.06c.68-.19,1.39.07,2.07-.16h4.6c.45.2.95,0,1.4.16a32.57,32.57,0,0,1,11.42,3.48,26.11,26.11,0,0,1,11.28,12.39,36.31,36.31,0,0,1,2.45,8c.32.83-.38.71-.79.84-2.62.32-5.24.61-7.86,1-2,.26-4,.57-6,.86-.37.12-.7.13-.85-.32a17.79,17.79,0,0,0-5.77-9.52,9.69,9.69,0,0,0-5.39-2.19c-.5-.05-.92-.47-1.44-.25a19.47,19.47,0,0,0-4.11,0c-3.78.22-7.23,1.24-9.92,4.05a5.71,5.71,0,0,0-1.8,4A8.58,8.58,0,0,0,711.92,437.68Z" style="fill:#252a2f"/><path d="M677,420.45a45.52,45.52,0,0,1,3.73,5,35.66,35.66,0,0,1,4.22,10.87c.19.87-.24,1-.72,1a38.21,38.21,0,0,0-3.85.49c-3,.38-6.05.78-9.06,1.24-1.51.23-1.72.2-2.11-1.21a15.93,15.93,0,0,0-6.12-9,9.09,9.09,0,0,0-4.85-1.72c-.43,0-.78-.4-1.23-.21a19.66,19.66,0,0,0-4.27,0c-3.74.34-7.24,1.26-9.9,4.15a8.17,8.17,0,0,0,3.12,12.92,55.47,55.47,0,0,0,9.53,2.16c7.1,1.27,14.22,2.52,20.68,5.94a19.36,19.36,0,0,1,10.48,15c0,.36.17.7.25,1.05s0,.79.16,1.16l.06,1.24a27.59,27.59,0,0,1,0,4.36,20.93,20.93,0,0,1-10.73,16.52,27,27,0,0,1-8.43,3.15c-1.92.38-3.84.67-5.78.87-.08,0-.14.13-.21.19h-1.09a1.66,1.66,0,0,0-1.31,0h-3.72c-.41-.23-.87-.05-1.3-.11s-.9-.12-1.32.11h-1.74c-.08-.38-.36-.25-.6-.23-.36-.2-.78,0-1.15-.17a36.38,36.38,0,0,1-8.07-1.65,29.42,29.42,0,0,1-10.26-5.64,23.84,23.84,0,0,1-6.82-10.58,23.3,23.3,0,0,1-1.09-5.74,13.81,13.81,0,0,1,.06-3.69h16.34c.64,0,1,0,1.17.89a18.69,18.69,0,0,0,2.73,7c1.83,2.77,4.69,3.78,7.68,4.47a23.12,23.12,0,0,0,7.87.44c.37-.17.8,0,1.17-.16,3.39-.37,6.69-1.33,8.47-4.39,2.1-3.61,2.61-8.13-1.14-11.45a17,17,0,0,0-6.3-3.23,35.83,35.83,0,0,0-7-1.47l-4.42-.49a41.48,41.48,0,0,1-5.81-1.16,36.84,36.84,0,0,1-8.66-3.21,19.38,19.38,0,0,1-8.44-8.18,14.1,14.1,0,0,1-1.53-5.29c-.16-.38,0-.8-.16-1.17v-5.95c.19-.37,0-.79.17-1.17a21.47,21.47,0,0,1,3-9.28,19.51,19.51,0,0,1,8.28-7.55A38,38,0,0,1,649,413.14c.53-.07,1.06-.17,1.6-.25.37-.16.79,0,1.16-.16l1.24-.06c.68-.19,1.39.07,2.07-.16h4.38c.38.18.8,0,1.18.16a27.22,27.22,0,0,1,15.52,7C676.64,419.68,676.82,420,677,420.45Z" style="fill:#252a2f"/><path d="M103.07,428.87h-.21V414.67h.21a2,2,0,0,1,.36,1.45v11.31A2,2,0,0,1,103.07,428.87Z" style="fill:#5e6266"/><path d="M725,495.63a1.26,1.26,0,0,1,1.53,0Z" style="fill:#45494e"/><path d="M475.64,495.63a1,1,0,0,1,1.31,0Z" style="fill:#6c6f73"/><path d="M653.19,495.63c.37-.44.86-.12,1.28-.19.09,0,.13.07.11.12s-.05.07-.08.07Z" style="fill:#7b7e81"/><path d="M654.5,495.63a.63.63,0,0,0,0-.19c.46,0,.94-.19,1.34.19Z" style="fill:#43484c"/><path d="M659.53,495.63a1,1,0,0,1,1.31,0Z" style="fill:#727579"/><path d="M480,495.63c.37-.23.73-.39,1.09,0Z" style="fill:#76797c"/><path d="M729.85,495.63a.75.75,0,0,1,1.09,0Z" style="fill:#505459"/><path d="M299,472.63c1.11-3.59,2.17-7,3.22-10.42q2-6.46,3.94-12.92c1.25-4.08,2.51-8.15,3.72-12.24.2-.67.41-1,1.18-1q5.83.06,11.68,0a.93.93,0,0,1,1.08.86c2.15,8.87,4.33,17.74,6.48,26.61.78,3.2,1.52,6.41,2.28,9.61,0,.09.1.16.26.38.18-.67.34-1.21.46-1.75.86-3.92,1.8-7.83,2.55-11.77s1.65-7.78,2.46-11.68c.63-3.11,1.26-6.23,2.08-9.3a4.34,4.34,0,0,1,.28-1.34c.24-.42.05-1.29.33-1.45a4.07,4.07,0,0,1,1.8-.15h13.87c.54,0,.83-.05.61.74q-6,20.7-11.84,41.41c-1.38,4.85-2.78,9.68-4.14,14.53-.16.57-.38.83-1,.82-4.62,0-9.24-.06-13.86,0-1.11,0-1.1-.78-1.25-1.35-1.14-4.55-2.41-9-3.67-13.56-1.4-5-2.62-10-4-15-.67-2.52-1.4-5-2.2-7.86-.42,1.51-.79,2.75-1.13,4q-3.48,12.78-6.94,25.56c-.66,2.45-1.34,4.9-1.94,7.36-.15.63-.4.82-1,.82q-6.5,0-13,0c-.47,0-.76-.15-.87-.57-1-3.45-1.89-6.92-2.87-10.37-1.68-5.83-3.39-11.65-5-17.5-1.32-4.79-2.78-9.54-4.17-14.31s-2.73-9.47-4.11-14.2c-.11-.4,0-.55.37-.55h.55c4.8,0,9.6,0,14.41,0a1.16,1.16,0,0,1,1.37,1.08q2,9.15,4,18.29c1.1,5,2.25,10,3.38,15A6.73,6.73,0,0,0,299,472.63Z" style="fill:#252a2f"/><path d="M587.89,413.76a32.57,32.57,0,0,1,10.34,3.12,27.16,27.16,0,0,1,12.15,13.3,36.18,36.18,0,0,1,2.75,9.46c.09.6-.23.68-.62.73l-11.19,1.35c-1.2.15-2.4.32-3.6.49-.41.08-.84.22-1.07-.31-.69-4.19-2.28-7.91-5.63-10.69a11.82,11.82,0,0,0-6.07-2.79c-.32-.05-.54-.4-.9-.24-.38-.19-.8,0-1.17-.16a15.73,15.73,0,0,0-3.29,0c-.38.15-.81,0-1.2.16a15.11,15.11,0,0,0-9.74,4.3.92.92,0,0,1-.71.71c-2.64,2.56-4,5.83-4.93,9.27a13.67,13.67,0,0,0-.68,4c-.21.36,0,.78-.17,1.14,0,.27,0,.55,0,.82-.24.58,0,1.21-.16,1.8a38.6,38.6,0,0,0,0,4.81c.2.67-.06,1.38.16,2.05l.06,1.22c.17.37,0,.79.16,1.15.67,6.64,2.36,12.89,7.29,17.75A12.64,12.64,0,0,0,578,481c.38.17.81,0,1.2.16a11.42,11.42,0,0,0,2.41,0c.38-.15.81,0,1.19-.15a13.86,13.86,0,0,0,7.25-2.91c3.66-2.66,5.72-6.45,7.28-10.57a12.8,12.8,0,0,1,.44-1.58c.33-.24.7-.12,1.06-.12H614c1.33,0,1.33,0,1.19,1.41a63.76,63.76,0,0,1-2.2,8.49,26.82,26.82,0,0,1-11.51,14.12,29.16,29.16,0,0,1-11.76,4c-.92.1-1.83.31-2.74.46-.39.15-.81,0-1.2.16l-1.64.06a43.09,43.09,0,0,1-5.45,0l-1.44-.06c-.38-.18-.8,0-1.18-.16a32.36,32.36,0,0,1-9.57-2.25,29.36,29.36,0,0,1-8.31-5,31.52,31.52,0,0,1-7.31-9.15,41.25,41.25,0,0,1-4-11,42,42,0,0,1-1-5.56c-.17-.37,0-.79-.16-1.15l-.06-.82c-.17-.45,0-.95-.16-1.41l-.06-1.64q-.16-3.6,0-7.19l.06-1.25c.21-.44,0-.93.17-1.37A40.11,40.11,0,0,1,548,436.45a34.14,34.14,0,0,1,7.48-12.34,33,33,0,0,1,17.29-9.4c1.82-.4,3.69-.63,5.53-.94.46-.18,1,0,1.41-.17l2.09-.05a12.88,12.88,0,0,1,3,0l1.87.06C587.08,413.78,587.51,413.61,587.89,413.76Z" style="fill:#252a2f"/><path d="M104.26,428.93c-.4,0-.79,0-1.19-.06V414.66c.4,0,.79-.06,1.19-.06h61.06c.43,0,.86.06,1.29.1v15.18c-.35.32-.77.16-1.15.16H144.22a2.13,2.13,0,0,0-1.17.11c0,.43-.07.86-.07,1.3q0,30.4,0,60.81c0,1-.25,1.35-1.31,1.34-5.35,0-10.69,0-16,0-.38-.36-.19-.82-.19-1.22q0-31,0-62.07a2.57,2.57,0,0,0-.11-1.29h0" style="fill:#252a2f"/><path d="M406.85,435.2V443c3.85-5.83,9.46-8.17,15.95-8.9a32,32,0,0,1,4.8,0,28.5,28.5,0,0,1,6,1.63c5.19,2.3,8.2,6.37,9.5,11.8.17.7.32,1.4.47,2.1.18.37,0,.79.17,1.15l.06,1.25a2.65,2.65,0,0,1,.06,1q0,19.29,0,38.56c0,.35.12.73-.13,1.05H428.48a2.14,2.14,0,0,1-.11-1.17q0-17.69,0-35.37a3.3,3.3,0,0,0-.08-1.29c-.46-4.85-3.37-7.75-8-8.24a5.4,5.4,0,0,0-2.12,0c-4.61.08-10.24,4.18-11.18,8.68a9.81,9.81,0,0,0-.11,1.94q0,17.13,0,34.25c0,.92-.15,1.23-1.16,1.21-4.37-.06-8.74-.07-13.1,0-1.06,0-1.22-.34-1.22-1.28q0-27.37,0-54.75c0-.44,0-.87,0-1.31.18-.27.46-.17.7-.17h14.16A.87.87,0,0,1,406.85,435.2Z" style="fill:#252a2f"/><path d="M267.08,492.58H251.83c-.26-.32-.13-.7-.13-1.05q0-37.9,0-75.8c0-1.15,0-1.15,1.2-1.15,4.4,0,8.8,0,13.2,0,.82,0,1.12.14,1.12,1.06q0,38.06,0,76.12A1.4,1.4,0,0,1,267.08,492.58Z" style="fill:#252a2f"/><path d="M363.68,464.75c0-9.2,0-18.39,0-27.59,0-.84.2-1.08,1.07-1.07,4.47.05,8.95,0,13.42,0,.75,0,1,.17,1,1q0,27.79,0,55.61c0,.77-.22,1-1,.95-4.48,0-9,0-13.43,0-.84,0-1.07-.2-1.07-1.06C363.7,483.29,363.68,474,363.68,464.75Z" style="fill:#252a2f"/><path d="M224.06,464.87c0-9.24,0-18.47,0-27.71,0-.87.24-1.08,1.09-1.07q6.65.06,13.31,0c.82,0,1.06.22,1.06,1q0,27.72,0,55.42c0,.92-.32,1.07-1.14,1.06-4.43,0-8.87,0-13.31,0-.86,0-1-.26-1-1Q224.08,478.72,224.06,464.87Z" style="fill:#252a2f"/><path d="M359.89,339.21c1.72-.5,3.51-.58,5.26-.95.35-.18.77.05,1.12-.17l.84,0c.44-.18.92.06,1.35-.17l1.28-.05c.58-.19,1.21.07,1.8-.16h8.4c.58.24,1.2,0,1.79.16l1.25.06a.4.4,0,0,1,.11.39,10.36,10.36,0,0,0-.13,1.84c0,4.07,0,8.14,0,12.21,0,1.56.26,3.11.23,4.67-.18,8.46-.29,16.92-.24,25.38a3.48,3.48,0,0,1-.55,2.39c-1.91-1.43-3.57-3.13-5.32-4.73-5.25-4.78-10.35-9.74-16.9-12.79-.16-.07-.33-.12-.5-.18a1.65,1.65,0,0,1-.5-1.38,46,46,0,0,0,.14-6.21c0-5.6,0-11.21,0-16.81a19.34,19.34,0,0,0-.11-2.28C359.15,339.84,359.22,339.34,359.89,339.21Z" style="fill:#3facaf"/><path d="M399.2,342a46.84,46.84,0,0,1,11.34,6.46,22.55,22.55,0,0,1,4,3.33,4.39,4.39,0,0,1,.13,1.3c0,.83,0,1.67,0,2.5-.06,15.44-.34,30.87-.22,46.3a2.18,2.18,0,0,1-.35,1.66,65.72,65.72,0,0,1-15.37-6.4,1.87,1.87,0,0,1-.36-.38,2.16,2.16,0,0,1-.14-1.07c0-9.22-.15-18.45.05-27.67.19-8.17.1-16.34.18-24.51a3.57,3.57,0,0,1,.1-1.08C398.63,342.13,398.75,341.8,399.2,342Z" style="fill:#3ab0ae"/><path d="M462.77,276.31a54.94,54.94,0,0,1,9.6,6.92c2.19,1.89,4.22,4,6.25,6,.25.25.57.45.68.82a5.35,5.35,0,0,0,0,1c-.32,14.49-.23,29-.25,43.47,0,.67.16,1.39-.35,2a70.67,70.67,0,0,1-14.85-4.36c-.32-.44-.67-.82-1.3-.67-.13,0-.2,0-.23-.15a1.2,1.2,0,0,1-.23-.82c.22-17.51,0-35,.1-52.53a4.33,4.33,0,0,1,.07-1.08C462.33,276.63,462.36,276.3,462.77,276.31Z" style="fill:#39b1ad"/><path d="M439.16,269.08l1.26.06a.32.32,0,0,1,.05.39,9.42,9.42,0,0,0-.2,4.09c0,.69.13,1.37.13,2.06,0,6.25.17,12.5,0,18.74-.23,6.42-.07,12.85-.18,19.27,0,.59.14,1.27-.55,1.65a4.24,4.24,0,0,1-.82-.49c-1.65-1.56-3.26-3.17-4.94-4.7s-3.41-2.95-5.11-4.43a45.44,45.44,0,0,0-7.39-5.4c-1.38-.79-2.83-1.48-4.24-2.22a2.9,2.9,0,0,1-.29-2.21,91.88,91.88,0,0,0,0-11.85c-.14-2,0-4-.06-6,0-2.47.05-4.94-.09-7.4a59.92,59.92,0,0,1,8.09-1.36c.37-.15.78,0,1.14-.15l1.26-.06c.66-.2,1.36.08,2-.16h8.4C438.09,269.14,438.65,268.9,439.16,269.08Z" style="fill:#3facaf"/><path d="M399.2,342c-.71.18-.41.77-.41,1.18,0,6.87.16,13.75-.06,20.61-.33,10.61-.05,21.22-.17,31.82a2.2,2.2,0,0,1-.23,1.16,30.75,30.75,0,0,1-5.22-3.21,116.28,116.28,0,0,1-9.94-7.93,2.12,2.12,0,0,1-.77-.88c.46-6.41,0-12.84.26-19.25.16-3.48.3-7,.12-10.43-.28-5.3,0-10.59-.16-15.88,0-.42-.25-1,.47-1.14a1.55,1.55,0,0,1,1,0,62,62,0,0,1,14.81,3.78A1,1,0,0,1,399.2,342Z" style="fill:#3caeae"/><path d="M462.77,276.31c-.41.39-.22.9-.22,1.35q0,23.41,0,46.84a40,40,0,0,1-.21,6.83,7.47,7.47,0,0,1-2.69-1.18,58.62,58.62,0,0,1-9.1-5.67,2.85,2.85,0,0,1-.36-1.67c-.13-2.44.22-4.86.22-7.3q0-21.15,0-42.31c0-.65-.35-1.48.56-1.9a31.63,31.63,0,0,1,7.07,2.5A23.83,23.83,0,0,1,462.77,276.31Z" style="fill:#3bafae"/><path d="M414.06,403.56c0-6.73,0-13.46,0-20.19-.06-10.14.39-20.27.23-30.41a2,2,0,0,1,.23-1.16c3.88,3,7.06,6.74,10.42,10.27.48.5.92,1,1.38,1.53-.07.62-.09,1.23-.11,1.85C426,378.3,426,391.15,426,404c0,.63.15,1.32-.35,1.87a68.41,68.41,0,0,1-8-1.33A23.64,23.64,0,0,1,414.06,403.56Z" style="fill:#38b2ad"/><path d="M451,271.3c-.4.4-.21.9-.21,1.35,0,14.6,0,29.2-.05,43.8,0,2.67-.18,5.35-.18,8a59.06,59.06,0,0,1-5.5-4.23c-1.56-1.27-3-2.6-4.56-3.92a8.06,8.06,0,0,1-.85-1,2,2,0,0,0,.21-1.16c-.13-12.87.39-25.75.21-38.62,0-1.77-.31-3.54-.22-5.31,0-.52,0-1,.71-.94a1.61,1.61,0,0,1,1,0,77.29,77.29,0,0,1,9,1.8A1.43,1.43,0,0,1,451,271.3Z" style="fill:#3daeae"/><path d="M359.89,339.21c-.25.22-.48.43-.43.82.49,3.43.16,6.88.21,10.32.06,4.61,0,9.22,0,13.83,0,1-.52,1.92,0,2.88a23.29,23.29,0,0,0-7.37-1.94c-.36-.2-.77,0-1.14-.16a29.83,29.83,0,0,0-4.82,0c-.37.16-.78,0-1.15.16a28.35,28.35,0,0,0-7.05,1.46c-.17,0-.35.05-.53.08-.75-.27-.55-.93-.55-1.46,0-3.94,0-7.88,0-11.82,0-1.23.05-2.46-.06-3.69a1.47,1.47,0,0,1,.19-.94,49,49,0,0,1,11.31-6.26,65.62,65.62,0,0,1,10.65-3.2C359.38,339.24,359.64,339.24,359.89,339.21Z" style="fill:#41abb0"/><path d="M416.68,270.65a1.21,1.21,0,0,1,.43,1c0,.11,0,.22,0,.33-.17,7.25.29,14.49.23,21.74a36.42,36.42,0,0,0-.23,4.43,50,50,0,0,0-5.06-1.41c-.77-.09-1.54-.21-2.31-.31-.36-.2-.77,0-1.14-.16a29.56,29.56,0,0,0-4.61,0c-.43.19-.92,0-1.35.17a39.6,39.6,0,0,0-5.41.88c-.57-.25-.92.16-1.31.44h0c-.53.21-.62-.2-.71-.55a5.11,5.11,0,0,1-.08-1.3V281.35a2.6,2.6,0,0,1,.35-1.78c6.12-4.54,13.08-7.15,20.44-8.86A6.15,6.15,0,0,1,416.68,270.65Z" style="fill:#41aab0"/><path d="M478.7,336.51c0-11.21-.1-22.43.06-33.64.05-3.94.09-7.89.16-11.84,0-.37,0-.73.38-.95l11,11.33a35.78,35.78,0,0,0-.1,3.59c0,9.73-.38,19.47-.22,29.2v1c0,1.89,0,1.89,1.85,1.89h3.71a2.88,2.88,0,0,1,1.39.2.2.2,0,0,1,.06.34H488.8c-.65-.24-1.35,0-2-.16l-1.26-.06c-.36-.2-.78,0-1.14-.15C482.48,337.13,480.59,336.82,478.7,336.51Z" style="fill:#36b2ac"/><path d="M497.1,337.45c-2.18,0-4.36,0-6.54,0-.7,0-.95-.2-.95-.93,0-6.54-.16-13.09.07-19.62.17-4.75,0-9.5.16-14.25,0-.46-.12-1,.45-1.23,4.23,3.76,8.86,6.81,14.4,8.3a3.53,3.53,0,0,1,.13,1.29c0,6.25,0,12.49,0,18.74,0,1.64-.32,3.25-.24,4.89a6,6,0,0,0,.32,1.92,18.18,18.18,0,0,1-3.94.69c-.36.17-.78,0-1.13.17l-1.27,0A3.18,3.18,0,0,1,497.1,337.45Z" style="fill:#34b4ac"/><path d="M425.63,405.87c0-7.11,0-14.22,0-21.33,0-6.67.14-13.33.22-20,0-.37-.16-.84.45-.94a32.74,32.74,0,0,1,2.76,2.89,77.13,77.13,0,0,0,8.58,7.58,3.27,3.27,0,0,1,.13,1.08c0,4.54.16,9.09,0,13.62-.23,4.87-.1,9.74-.17,14.6,0,2.11,0,2.11,1.93,2.65.15.09.16.2,0,.33h-8.16c-.66-.24-1.36,0-2-.16l-1.27-.05c-.43-.23-.92,0-1.36-.17Z" style="fill:#35b3ac"/><path d="M447.47,378.48c1.24,0,2.41.57,3.67.42.43.22.91,0,1.35.17a31.86,31.86,0,0,0,5.26,0c.37-.15.79,0,1.16-.15a22.85,22.85,0,0,0,4.65-.72l1.16-.2a1.33,1.33,0,0,1,.55,1,11.35,11.35,0,0,1,.24,2.17c0,5.27,0,10.54,0,15.81a2.29,2.29,0,0,1-.34,1.57,25.92,25.92,0,0,1-5.72,3.2,54.09,54.09,0,0,1-9.53,3.17,22.25,22.25,0,0,1-2.45.36,1.84,1.84,0,0,1-.35-1.43q0-12,0-23.93A1.86,1.86,0,0,1,447.47,378.48Z" style="fill:#31b6ab"/><path d="M504.91,336.55c-.66.05-.65-.38-.66-.85,0-1.73.18-3.46.2-5.19.06-6.52,0-13,0-19.56,0-.42-.17-.88.21-1.24,1.31,0,2.56.57,3.89.45.43.23.91,0,1.34.17a33,33,0,0,0,5.26,0c.44-.19.92.05,1.36-.17a17,17,0,0,0,3.69-.54,2.94,2.94,0,0,1,1.06-.09,2.28,2.28,0,0,1,.55,1.81c0,6.05,0,12.09,0,18.13a5.28,5.28,0,0,1-.14,1,46.75,46.75,0,0,1-16.05,6.07A4.84,4.84,0,0,1,504.91,336.55Z" style="fill:#31b6ab"/><path d="M521.72,330.44c-.37-.36-.21-.82-.21-1.24,0-5,0-9.94,0-14.91a24.42,24.42,0,0,0-.21-4.76,65,65,0,0,0,8.38-3.45,50.12,50.12,0,0,0,8.33-5.74,47.24,47.24,0,0,0,7.11-7.51c.44.12.31.43.23.72a68.41,68.41,0,0,1-2.64,10.24,53.16,53.16,0,0,1-10.49,18A42.59,42.59,0,0,1,521.72,330.44Z" style="fill:#2eb8aa"/><path d="M465.17,398.55c0-5.68,0-11.35,0-17a15.53,15.53,0,0,0-.45-3.54,70.53,70.53,0,0,0,7.19-3,50.7,50.7,0,0,0,9.16-6.37,47,47,0,0,0,6.31-6.77,4.43,4.43,0,0,1,.48-.39,31.07,31.07,0,0,1-.91,5.17,56.87,56.87,0,0,1-9.57,20.75,47.51,47.51,0,0,1-11.89,11.13A1.07,1.07,0,0,1,465.17,398.55Z" style="fill:#2eb8aa"/><path d="M447.47,378.48v26.8a20.08,20.08,0,0,1-3.94.7c-.36.17-.78,0-1.15.16l-1.25.06a2.93,2.93,0,0,1-1.47,0c-2.45-.08-2.45-.08-2.45-2.57,0-3.92-.16-7.85,0-11.76.28-5.58.08-11.16.17-16.74a2.17,2.17,0,0,1,.23-1A33.53,33.53,0,0,0,447.47,378.48Z" style="fill:#34b4ac"/><path d="M395.49,279.57q0,8.49,0,17c0,.4-.3,1,.42,1.17a44.39,44.39,0,0,0-10.13,5c-4.49,3-7.17,5.56-12.69,12a8.29,8.29,0,0,1,.63-3.73,59.34,59.34,0,0,1,10.47-21,52.72,52.72,0,0,1,10.41-10A4.9,4.9,0,0,1,395.49,279.57Z" style="fill:#43a9b1"/><path d="M337.18,348.75a16.51,16.51,0,0,1,.22,4.09c0,4.23,0,8.46,0,12.69,0,.38-.14.81.21,1.13-1.47.65-3,1.26-4.42,2-6.86,3.36-12.36,8.37-17.12,14.24a2.89,2.89,0,0,0-.3.58c-.39.06-.33-.17-.25-.4a43.42,43.42,0,0,1,1.83-6.91,55.75,55.75,0,0,1,10.11-18.34A46.08,46.08,0,0,1,337.18,348.75Z" style="fill:#43a9b1"/><path d="M363.63,428.77c0-4.06.06-8.12,0-12.19,0-.81.2-1,1-1,4.46,0,8.93.05,13.4,0,.89,0,1.06.27,1.05,1.09,0,4.07,0,8.13,0,12.19a1.19,1.19,0,0,1-.74.11c-4.66,0-9.31,0-14,0C364.15,429,363.82,429.11,363.63,428.77Z" style="fill:#252a2f"/><path d="M224.06,428.86c0-4.07,0-8.13,0-12.2,0-.81.15-1.1,1-1.09,4.43.05,8.86,0,13.29,0,.87,0,1.12.23,1.11,1.1-.05,3.63,0,7.26,0,10.89,0,.39.05.79.07,1.19s-.34.21-.54.21H224.47A.76.76,0,0,1,224.06,428.86Z" style="fill:#252a2f"/><path d="M496.24,415.57c0,.43-.08.86-.08,1.3q0,12.21,0,24.42c0,.25.18.58-.16.75,0,0-.19-.19-.28-.29.41-.35.24-.82.24-1.23,0-7.92,0-15.84,0-23.76C496,416.36,495.75,415.87,496.24,415.57Z" style="fill:#fcfcfc"/><path d="M495.72,487.33a.69.69,0,0,1,.37-.62c.21,2.34-.09,4.65.17,6.93-.45-.2-.3-.61-.3-.95,0-1.45,0-2.9,0-4.34C496,488,496.07,487.61,495.72,487.33Z" style="fill:#fcfcfc"/><path d="M197.18,485.74c.46.16.19.55.2.8,0,2,.05,4,.07,6-.41-.29-.24-.73-.24-1.1C197.18,489.56,197.19,487.65,197.18,485.74Z" style="fill:#fcfcfc"/><path d="M482.41,435.15h-3.7A7.72,7.72,0,0,1,482.41,435.15Z" style="fill:#fcfcfc"/><path d="M395.93,297.7c.31-.51.5-1.39,1.31-.44A2.56,2.56,0,0,1,395.93,297.7Z" style="fill:#43a9b1"/><path d="M462.55,331.48c.94-.77,1.09,0,1.3.67Z" style="fill:#3bafae"/><path d="M455.08,463.78v2.83A4.64,4.64,0,0,1,455.08,463.78Z" style="fill:#fcfcfc"/><path d="M455.14,468.28a3.78,3.78,0,0,1,.16,1.6C454.94,469.38,455.17,468.81,455.14,468.28Z" style="fill:#fcfcfc"/><path d="M455.3,460.5a2.94,2.94,0,0,1-.16,1.41C455.17,461.44,455,460.94,455.3,460.5Z" style="fill:#fcfcfc"/><path d="M596.65,441.9c.24.52.71.21,1.07.31C597.27,442.43,596.81,442.68,596.65,441.9Z" style="fill:#fcfcfc"/><path d="M455.35,470.7a2.24,2.24,0,0,1,.17,1.14C455.21,471.5,455.37,471.09,455.35,470.7Z" style="fill:#fcfcfc"/><path d="M509.33,415.57c-4.36,0-8.73,0-13.09,0-.32.3-.16.68-.17,1,0,2,0,3.93,0,5.89q0,9.11,0,18.21c0,.34.37.91-.34,1.06a23.52,23.52,0,0,0-13.3-6.6,20.78,20.78,0,0,0-3.7,0,27.89,27.89,0,0,0-9.58,2.55c-5.82,2.86-9.55,7.58-11.79,13.56a33.68,33.68,0,0,0-2,9.24c-.18.46,0,1-.16,1.41l-.06,1.87a12.18,12.18,0,0,0,0,2.83l.06,1.67c.22.51,0,1.08.16,1.6,0,.27,0,.55.05.82.21.36,0,.78.17,1.14.13,1.22.32,2.44.53,3.65a32.57,32.57,0,0,0,3.84,11A17.29,17.29,0,0,0,471.56,495a10.16,10.16,0,0,1,3,.68h1.09a1.66,1.66,0,0,1,1.31,0H480a1.23,1.23,0,0,1,1.09,0h.44c0-.17.16-.2.31-.22a20.4,20.4,0,0,0,12.42-6.51c.49-.52.76-1.24,1.45-1.57.61,0,.33.47.33.7,0,1.54,0,3.09,0,4.63,0,.33-.19.72.18,1,4.37,0,8.73-.06,13.1,0,1,0,1.2-.29,1.2-1.23q0-37.8,0-75.6C510.56,415.82,510.29,415.56,509.33,415.57Zm-14.26,57.78a12.5,12.5,0,0,1-17.7,7.82c-3.45-1.66-5.12-4.69-6.07-8.22a29.51,29.51,0,0,1-.84-7.66,31.43,31.43,0,0,1,1.45-9.87c2.11-5.92,6.64-8.71,12.89-7.93a16.59,16.59,0,0,1,3.82.83,10.18,10.18,0,0,1,6.61,7.67A34.49,34.49,0,0,1,495.07,473.35Z" style="fill:#252a2f"/><path d="M211.81,455.57c-.22-.59,0-1.23-.16-1.83-.16-.92-.28-1.84-.49-2.75a16.82,16.82,0,0,0-8.46-11.64,29.42,29.42,0,0,0-11-3.11c-.61-.19-1.25.06-1.84-.16h-4.6c-.83.24-1.68,0-2.51.16l-1.42.06c-.39.18-.82,0-1.2.16a24.75,24.75,0,0,0-8.34,2.28,17.56,17.56,0,0,0-9.3,12c-.39,1.68-.36,1.73,1.26,1.9.53.18,1.1-.05,1.63.16l1.43.06c.53.18,1.1,0,1.63.16l1.43.06c.53.18,1.1-.05,1.63.16l1.42.05c.53.19,1.11,0,1.64.17.39,0,.79,0,1.18,0,.64,0,1.14.1,1.17-.88a4.44,4.44,0,0,1,.78-2.06c1.85-3,4.76-3.89,8-4.06a8.94,8.94,0,0,1,2.78,0c.55-.23,1.05.12,1.55.21a6.45,6.45,0,0,1,4.37,2.37,11.6,11.6,0,0,1,2.11,5.74,5.38,5.38,0,0,1-.47,2.79q-3.6-.17-7.19,0l-2.08.05c-.53.21-1.1,0-1.64.17l-1,0c-.36.2-.78,0-1.15.16l-.83.06c-.35.21-.78,0-1.14.17-.92.16-1.85.3-2.77.49-4,.79-7.89,1.73-11.4,3.91a16.31,16.31,0,0,0-7.6,12.07A16.3,16.3,0,0,0,165.41,490a20.32,20.32,0,0,0,10,3.73c.44.19.94-.05,1.37.17h4.2c.38-.17.81,0,1.2-.16l1.68-.28a21.14,21.14,0,0,0,7-2.57,35.4,35.4,0,0,0,6.39-5.11c.28.39.1.83.13,1.25a47.21,47.21,0,0,0,.14,5.58c4.4,0,8.8,0,13.2,0,.91,0,1.14-.24,1.13-1.14q0-17.51,0-35C211.76,456.15,211.79,455.86,211.81,455.57Zm-16.06,20.91a10,10,0,0,1-7,5.66c-3.09.7-6.21,1.33-9.38.64a6.15,6.15,0,0,1-4.67-4.7A5.69,5.69,0,0,1,176.3,472a10.82,10.82,0,0,1,4.12-2.36,35.27,35.27,0,0,1,12.45-1.72c1.24,0,2.48,0,3.71,0,.57,0,.85.08.84.75A17.85,17.85,0,0,1,195.75,476.48Z" style="fill:#252a2f"/></svg>